<?xml version="1.0" encoding="UTF-8"?>
<svg id="_圖層_2" data-name="圖層 2" xmlns="http://www.w3.org/2000/svg" viewBox="0 0 681.76 677.1">
  <defs>
    <style>
      .cls-1 {
        fill: #231815;
        font-family: jf-openhuninn-2.0, jf-openhuninn-2.0;
        font-size: 16px;
      }

      .cls-2 {
        stroke-dasharray: 0 0 11.93 11.93;
      }

      .cls-2, .cls-3, .cls-4, .cls-5, .cls-6, .cls-7 {
        fill: none;
        stroke-linecap: round;
        stroke-linejoin: round;
        stroke-width: 10px;
      }

      .cls-2, .cls-3, .cls-4, .cls-8, .cls-6, .cls-7 {
        stroke: #d7636d;
      }

      .cls-4 {
        stroke-dasharray: 0 0 12.71 12.71;
      }

      .cls-5 {
        stroke-dasharray: 0 12;
      }

      .cls-5, .cls-9 {
        stroke: #e4007f;
      }

      .cls-8, .cls-9 {
        fill: #fff;
        stroke-miterlimit: 10;
        stroke-width: 2px;
      }

      .cls-6 {
        stroke-dasharray: 0 0 12.15 12.15;
      }

      .cls-7 {
        stroke-dasharray: 0 0 12.25 12.25;
      }
    </style>
  </defs>
  <g id="_淡水線" data-name="淡水線">
    <g>
      <line class="cls-3" x1="53.93" y1="5.24" x2="54.07" y2="11.23"/>
      <line class="cls-4" x1="54.37" y1="23.94" x2="57.18" y2="144.65"/>
      <polyline class="cls-3" points="57.32 151 57.46 157 63.46 157"/>
      <line class="cls-2" x1="75.39" y1="157" x2="284.09" y2="157"/>
      <polyline class="cls-3" points="290.05 157 296.05 157 296 163"/>
      <line class="cls-7" x1="295.89" y1="175.25" x2="291.92" y2="634.76"/>
      <polyline class="cls-3" points="291.87 640.88 291.82 646.88 297.82 646.88"/>
      <line class="cls-6" x1="309.96" y1="646.88" x2="643.98" y2="646.88"/>
      <line class="cls-3" x1="650.05" y1="646.88" x2="656.05" y2="646.88"/>
    </g>
    <line class="cls-5" x1="171.82" y1="115.71" x2="171.82" y2="146.06"/>
    <ellipse class="cls-8" cx="57.11" cy="9.65" rx="12.35" ry="8.65"/>
    <ellipse class="cls-8" cx="57.11" cy="50.24" rx="12.35" ry="8.65"/>
    <ellipse class="cls-8" cx="55.7" cy="89.41" rx="12.35" ry="8.65"/>
    <ellipse class="cls-8" cx="57.11" cy="130.71" rx="12.35" ry="8.65"/>
    <ellipse class="cls-8" cx="80.4" cy="157.53" rx="12.35" ry="8.65"/>
    <ellipse class="cls-8" cx="127.7" cy="157.53" rx="12.35" ry="8.65"/>
    <ellipse class="cls-8" cx="171.82" cy="157.53" rx="12.35" ry="8.65"/>
    <ellipse class="cls-8" cx="215.23" cy="157.53" rx="12.35" ry="8.65"/>
    <ellipse class="cls-8" cx="263.58" cy="157.53" rx="12.35" ry="8.65"/>
    <ellipse class="cls-8" cx="295.48" cy="183.65" rx="12.35" ry="8.65"/>
    <ellipse class="cls-8" cx="295.48" cy="221.76" rx="12.35" ry="8.65"/>
    <ellipse class="cls-8" cx="295.48" cy="259.88" rx="12.35" ry="8.65"/>
    <ellipse class="cls-8" cx="295.48" cy="295.53" rx="12.35" ry="8.65"/>
    <ellipse class="cls-8" cx="295.48" cy="333.29" rx="12.35" ry="8.65"/>
    <ellipse class="cls-8" cx="295.48" cy="371.06" rx="12.35" ry="8.65"/>
    <ellipse class="cls-8" cx="295.48" cy="422.24" rx="12.35" ry="8.65"/>
    <ellipse class="cls-8" cx="295.48" cy="461.94" rx="12.35" ry="8.65"/>
    <ellipse class="cls-8" cx="295.48" cy="496.53" rx="12.35" ry="8.65"/>
    <ellipse class="cls-8" cx="295.48" cy="564.47" rx="12.35" ry="8.65"/>
    <ellipse class="cls-8" cx="295.48" cy="603.12" rx="12.35" ry="8.65"/>
    <ellipse class="cls-8" cx="295.48" cy="641.76" rx="12.35" ry="8.65"/>
    <ellipse class="cls-8" cx="381.43" cy="645.76" rx="12.35" ry="8.65"/>
    <ellipse class="cls-8" cx="437.93" cy="645.76" rx="12.35" ry="8.65"/>
    <ellipse class="cls-8" cx="494.7" cy="645.76" rx="12.35" ry="8.65"/>
    <ellipse class="cls-8" cx="559.35" cy="645.76" rx="12.35" ry="8.65"/>
    <ellipse class="cls-8" cx="610.87" cy="645.76" rx="12.35" ry="8.65"/>
    <ellipse class="cls-8" cx="663.11" cy="645.76" rx="12.35" ry="8.65"/>
    <ellipse class="cls-9" cx="171.82" cy="104.24" rx="12.35" ry="8.65"/>
    <text class="cls-1" transform="translate(7.84 15.51)"><tspan x="0" y="0">淡水</tspan></text>
    <text class="cls-1" transform="translate(0 53.27)"><tspan x="0" y="0">紅樹林</tspan></text>
    <text class="cls-1" transform="translate(8.22 92.43)"><tspan x="0" y="0">竹圍</tspan></text>
    <text class="cls-1" transform="translate(7.68 135.03)"><tspan x="0" y="0">關渡</tspan></text>
    <text class="cls-1" transform="translate(63.51 183.63)"><tspan x="0" y="0">忠義</tspan></text>
    <text class="cls-1" transform="translate(105.37 183.63)"><tspan x="0" y="0">復興崗</tspan></text>
    <text class="cls-1" transform="translate(155.57 183.64)"><tspan x="0" y="0">北投</tspan></text>
    <text class="cls-1" transform="translate(197.95 183.72)"><tspan x="0" y="0">奇岩</tspan></text>
    <text class="cls-1" transform="translate(233.1 183.62)"><tspan x="0" y="0" xml:space="preserve"> 唭哩岸</tspan></text>
    <text class="cls-1" transform="translate(315.5 185.16)"><tspan x="0" y="0">石牌</tspan></text>
    <text class="cls-1" transform="translate(315.15 223.3)"><tspan x="0" y="0">明德</tspan></text>
    <text class="cls-1" transform="translate(315.94 265.33)"><tspan x="0" y="0">芝山</tspan></text>
    <text class="cls-1" transform="translate(315.48 300.92)"><tspan x="0" y="0">士林</tspan></text>
    <text class="cls-1" transform="translate(315.49 337.55)"><tspan x="0" y="0">劍潭</tspan></text>
    <text/>
    <text class="cls-1" transform="translate(315.65 375.12)"><tspan x="0" y="0">圓山</tspan></text>
    <text class="cls-1" transform="translate(307.83 403.12)"><tspan x="0" y="0">民權西路</tspan></text>
    <text class="cls-1" transform="translate(315.57 464.35)"><tspan x="0" y="0">雙連</tspan></text>
    <text class="cls-1" transform="translate(315.56 488.02)"><tspan x="0" y="0">中山</tspan></text>
    <text class="cls-1" transform="translate(299.48 544.1)"><tspan x="0" y="0">台北車站</tspan></text>
    <text class="cls-1" transform="translate(316.38 611.76)"><tspan x="0" y="0">臺大醫院</tspan></text>
    <text class="cls-1" transform="translate(239.28 672.61)"><tspan x="0" y="0">中山紀念堂</tspan></text>
    <text class="cls-1" transform="translate(373.96 672.6)"><tspan x="0" y="0">東門</tspan></text>
    <text class="cls-1" transform="translate(421.93 608.75)"><tspan x="0" y="0">大安</tspan><tspan x="-16" y="20">森林公園</tspan></text>
    <text class="cls-1" transform="translate(499.35 627.44)"><tspan x="0" y="0">大安</tspan></text>
    <text class="cls-1" transform="translate(550.26 627.43)"><tspan x="0" y="0">信義安和</tspan></text>
    <text class="cls-1" transform="translate(565.59 672.61)"><tspan x="0" y="0">台北101/世貿</tspan></text>
    <text class="cls-1" transform="translate(649.76 627.44)"><tspan x="0" y="0">象山</tspan></text>
    <text class="cls-1" transform="translate(148.75 89.41)"><tspan x="0" y="0">新北投</tspan></text>
  </g>
</svg>