<?xml version="1.0" encoding="UTF-8"?>
<svg id="_圖層_2" data-name="圖層 2" xmlns="http://www.w3.org/2000/svg" viewBox="0 0 535.13 634.07">
  <defs>
    <style>
      .cls-1 {
        fill: #231815;
        font-family: jf-openhuninn-2.0, jf-openhuninn-2.0;
        font-size: 16px;
      }

      .cls-2 {
        fill: none;
        stroke-dasharray: 0 12;
        stroke-linecap: round;
        stroke-linejoin: round;
        stroke-width: 10px;
      }

      .cls-2, .cls-3 {
        stroke: #eb806e;
      }

      .cls-3 {
        fill: #fff;
        stroke-miterlimit: 10;
        stroke-width: 2px;
      }
    </style>
  </defs>
  <g id="_蘆洲線" data-name="蘆洲線">
    <path class="cls-2" d="M431.45,432.1c-15.33,14.37-30.33,27.37-45.33,41.37-3,51,0,103-.65,154.12"/>
    <path class="cls-2" d="M444.52,196.29c4.6,1.18,8.6-.82,13.6,1.18v210"/>
    <path class="cls-2" d="M158.88,5c.24,35.47,.24,71.47,.24,106.47,27,28,56,54,83,83,1,1,3,2,5,2,30,0,61,0,91.21-.18"/>
    <polyline class="cls-2" points="14.88 524.53 11.35 392.53 245 196.29"/>
    <line class="cls-2" x1="372.71" y1="196.47" x2="453.58" y2="196.47"/>
  </g>
  <g id="_蘆洲點" data-name="蘆洲點">
    <path class="cls-3" d="M169.82,12.52c0,4.78-5.53,8.65-12.35,8.65s-12.35-3.87-12.35-8.65"/>
    <path class="cls-3" d="M169.82,13.65c0-4.78-5.53-8.65-12.35-8.65s-12.35,3.87-12.35,8.65"/>
    <path class="cls-3" d="M169.82,54.91c0,4.78-5.53,8.65-12.35,8.65s-12.35-3.87-12.35-8.65"/>
    <path class="cls-3" d="M169.82,56.03c0-4.78-5.53-8.65-12.35-8.65s-12.35,3.87-12.35,8.65"/>
    <path class="cls-3" d="M169.82,96.34c0,4.78-5.53,8.65-12.35,8.65s-12.35-3.87-12.35-8.65"/>
    <path class="cls-3" d="M169.82,97.46c0-4.78-5.53-8.65-12.35-8.65s-12.35,3.87-12.35,8.65"/>
    <path class="cls-3" d="M194.99,135.73c0,4.78-5.53,8.65-12.35,8.65s-12.35-3.87-12.35-8.65"/>
    <path class="cls-3" d="M194.99,136.86c0-4.78-5.53-8.65-12.35-8.65s-12.35,3.87-12.35,8.65"/>
    <path class="cls-3" d="M228.27,166.23c0,4.78-5.53,8.65-12.35,8.65s-12.35-3.87-12.35-8.65"/>
    <path class="cls-3" d="M228.27,167.36c0-4.78-5.53-8.65-12.35-8.65s-12.35,3.87-12.35,8.65"/>
    <path class="cls-3" d="M225.97,219.96c0,4.78-5.53,8.65-12.35,8.65s-12.35-3.87-12.35-8.65"/>
    <path class="cls-3" d="M225.97,221.09c0-4.78-5.53-8.65-12.35-8.65s-12.35,3.87-12.35,8.65"/>
    <path class="cls-3" d="M191.71,249.79c0,4.78-5.53,8.65-12.35,8.65s-12.35-3.87-12.35-8.65"/>
    <path class="cls-3" d="M191.71,250.92c0-4.78-5.53-8.65-12.35-8.65s-12.35,3.87-12.35,8.65"/>
    <path class="cls-3" d="M152.88,284.25c0,4.78-5.53,8.65-12.35,8.65s-12.35-3.87-12.35-8.65"/>
    <path class="cls-3" d="M152.88,285.38c0-4.78-5.53-8.65-12.35-8.65s-12.35,3.87-12.35,8.65"/>
    <path class="cls-3" d="M111.2,317.2c0,4.78-5.53,8.65-12.35,8.65s-12.35-3.87-12.35-8.65"/>
    <path class="cls-3" d="M111.2,318.33c0-4.78-5.53-8.65-12.35-8.65s-12.35,3.87-12.35,8.65"/>
    <path class="cls-3" d="M67.42,351.2c0,4.78-5.53,8.65-12.35,8.65s-12.35-3.87-12.35-8.65"/>
    <path class="cls-3" d="M67.42,352.33c0-4.78-5.53-8.65-12.35-8.65s-12.35,3.87-12.35,8.65"/>
    <path class="cls-3" d="M25.71,400.31c0,4.78-5.53,8.65-12.35,8.65s-12.35-3.87-12.35-8.65"/>
    <path class="cls-3" d="M25.71,401.43c0-4.78-5.53-8.65-12.35-8.65s-12.35,3.87-12.35,8.65"/>
    <path class="cls-3" d="M25.71,437.81c0,4.78-5.53,8.65-12.35,8.65s-12.35-3.87-12.35-8.65"/>
    <path class="cls-3" d="M25.71,438.94c0-4.78-5.53-8.65-12.35-8.65s-12.35,3.87-12.35,8.65"/>
    <path class="cls-3" d="M25.71,483.4c0,4.78-5.53,8.65-12.35,8.65s-12.35-3.87-12.35-8.65"/>
    <path class="cls-3" d="M25.71,484.52c0-4.78-5.53-8.65-12.35-8.65s-12.35,3.87-12.35,8.65"/>
    <path class="cls-3" d="M25.71,516.58c0,4.78-5.53,8.65-12.35,8.65s-12.35-3.87-12.35-8.65"/>
    <path class="cls-3" d="M25.71,517.7c0-4.78-5.53-8.65-12.35-8.65s-12.35,3.87-12.35,8.65"/>
    <path class="cls-3" d="M300.41,195.73c0,4.78-5.53,8.65-12.35,8.65s-12.35-3.87-12.35-8.65"/>
    <path class="cls-3" d="M300.41,196.86c0-4.78-5.53-8.65-12.35-8.65s-12.35,3.87-12.35,8.65"/>
    <path class="cls-3" d="M368.53,193.94c0,3.5-4.05,6.33-9.05,6.33s-9.05-2.84-9.05-6.33"/>
    <path class="cls-3" d="M368.53,194.77c0-3.5-4.05-6.33-9.05-6.33s-9.05,2.84-9.05,6.33"/>
    <path class="cls-3" d="M438.95,195.17c0,4.78-5.53,8.65-12.35,8.65s-12.35-3.87-12.35-8.65"/>
    <path class="cls-3" d="M438.95,196.29c0-4.78-5.53-8.65-12.35-8.65s-12.35,3.87-12.35,8.65"/>
    <path class="cls-3" d="M471.57,220.53c0,4.78-5.53,8.65-12.35,8.65s-12.35-3.87-12.35-8.65"/>
    <path class="cls-3" d="M471.57,221.65c0-4.78-5.53-8.65-12.35-8.65s-12.35,3.87-12.35,8.65"/>
    <path class="cls-3" d="M471.57,268.08c0,4.78-5.53,8.65-12.35,8.65s-12.35-3.87-12.35-8.65"/>
    <path class="cls-3" d="M471.57,269.21c0-4.78-5.53-8.65-12.35-8.65s-12.35,3.87-12.35,8.65"/>
    <path class="cls-3" d="M471.57,336.03c0,4.78-5.53,8.65-12.35,8.65s-12.35-3.87-12.35-8.65"/>
    <path class="cls-3" d="M471.57,337.15c0-4.78-5.53-8.65-12.35-8.65s-12.35,3.87-12.35,8.65"/>
    <path class="cls-3" d="M454.49,417.47c0,3.5-4.05,6.33-9.05,6.33s-9.05-2.84-9.05-6.33"/>
    <path class="cls-3" d="M454.49,418.29c0-3.5-4.05-6.33-9.05-6.33s-9.05,2.84-9.05,6.33"/>
    <path class="cls-3" d="M416.18,452.24c0,4.78-5.53,8.65-12.35,8.65s-12.35-3.87-12.35-8.65"/>
    <path class="cls-3" d="M416.18,453.37c0-4.78-5.53-8.65-12.35-8.65s-12.35,3.87-12.35,8.65"/>
    <path class="cls-3" d="M397.47,496.61c0,4.78-5.53,8.65-12.35,8.65s-12.35-3.87-12.35-8.65"/>
    <path class="cls-3" d="M397.47,497.74c0-4.78-5.53-8.65-12.35-8.65s-12.35,3.87-12.35,8.65"/>
    <path class="cls-3" d="M397.47,533.46c0,4.78-5.53,8.65-12.35,8.65s-12.35-3.87-12.35-8.65"/>
    <path class="cls-3" d="M397.47,534.59c0-4.78-5.53-8.65-12.35-8.65s-12.35,3.87-12.35,8.65"/>
    <path class="cls-3" d="M397.47,574.61c0,4.78-5.53,8.65-12.35,8.65s-12.35-3.87-12.35-8.65"/>
    <path class="cls-3" d="M397.47,575.74c0-4.78-5.53-8.65-12.35-8.65s-12.35,3.87-12.35,8.65"/>
    <path class="cls-3" d="M397.47,618.94c0,4.78-5.53,8.65-12.35,8.65s-12.35-3.87-12.35-8.65"/>
    <path class="cls-3" d="M397.47,620.07c0-4.78-5.53-8.65-12.35-8.65s-12.35,3.87-12.35,8.65"/>
  </g>
  <g id="_蘆洲名稱" data-name="蘆洲名稱">
    <text class="cls-1" transform="translate(170.28 16.84)"><tspan x="0" y="0">蘆洲</tspan></text>
    <text class="cls-1" transform="translate(171.14 60.31)"><tspan x="0" y="0">三民高中</tspan></text>
    <text class="cls-1" transform="translate(172.03 100.66)"><tspan x="0" y="0">徐匯中學</tspan></text>
    <text class="cls-1" transform="translate(197.05 134.53)"><tspan x="0" y="0">三和國中</tspan></text>
    <text class="cls-1" transform="translate(231.04 161.9)"><tspan x="0" y="0">三重國小</tspan></text>
    <text class="cls-1" transform="translate(280.02 180.06)"><tspan x="0" y="0">大橋頭</tspan></text>
    <text class="cls-1" transform="translate(434.96 183.14)"><tspan x="0" y="0">中山國小</tspan></text>
    <text class="cls-1" transform="translate(480.22 225.41)"><tspan x="0" y="0">行天宮</tspan></text>
    <text class="cls-1" transform="translate(471.13 253.32)"><tspan x="0" y="0">松江南京</tspan></text>
    <text class="cls-1" transform="translate(473.66 320.68) scale(.95 1)"><tspan x="0" y="0">忠孝新生</tspan></text>
    <text class="cls-1" transform="translate(402.11 495.42)"><tspan x="0" y="0">頂溪</tspan></text>
    <text class="cls-1" transform="translate(402.15 531.84)"><tspan x="0" y="0">永安市場</tspan></text>
    <text class="cls-1" transform="translate(402.18 567.27)"><tspan x="0" y="0">景安</tspan></text>
    <text class="cls-1" transform="translate(404.05 629.59)"><tspan x="0" y="0">南勢角</tspan></text>
    <text class="cls-1" transform="translate(436.39 464.85)"><tspan x="0" y="0">古亭</tspan></text>
    <text class="cls-1" transform="translate(228.27 234.06)"><tspan x="0" y="0">台北橋</tspan></text>
    <text class="cls-1" transform="translate(197.94 264.89)"><tspan x="0" y="0">菜寮</tspan></text>
    <text class="cls-1" transform="translate(157.47 296.96)"><tspan x="0" y="0">三重</tspan></text>
    <text class="cls-1" transform="translate(114.97 334.59)"><tspan x="0" y="0">先嗇宮</tspan></text>
    <text class="cls-1" transform="translate(86.49 364.18)"><tspan x="0" y="0">頭前庄</tspan></text>
    <text class="cls-1" transform="translate(30.7 404.63)"><tspan x="0" y="0">新莊</tspan></text>
    <text class="cls-1" transform="translate(30.69 442.13)"><tspan x="0" y="0">輔大</tspan></text>
    <text class="cls-1" transform="translate(30.56 486.3)"><tspan x="0" y="0">丹鳳</tspan></text>
    <text class="cls-1" transform="translate(30.64 529.1)"><tspan x="0" y="0">迴龍</tspan></text>
    <text class="cls-1" transform="translate(371.84 175.24)"><tspan x="0" y="0">民權西路</tspan></text>
    <text class="cls-1" transform="translate(438.25 444.93)"><tspan x="0" y="0">東門</tspan></text>
  </g>
</svg>