<?xml version="1.0" encoding="UTF-8"?>
<svg id="_圖層_2" data-name="圖層 2" xmlns="http://www.w3.org/2000/svg" viewBox="0 0 40.25 43.5">
  <defs>
    <style>
      .cls-1 {
        fill: #fff;
      }
    </style>
  </defs>
  <g id="_圖層_1-2" data-name="圖層 1">
    <path d="M20.79,0c8.05,.32,15.82,7.1,18.1,13.97,1.18,3.57,1.67,7.48,1.14,11.1-.77,5.2-3.12,9.78-7.39,13.43-1.98,1.69-3.83,3.06-6.28,3.82-5.38,1.66-10.86,1.86-15.53-1.3-4.3-2.91-8.24-6.69-9.7-11.98-1.56-5.66-1.75-11.52,1-16.87,1.51-2.94,3.56-5.58,6.49-7.71,2.51-1.84,4.99-3.09,7.91-3.72,1.41-.3,2.84-.49,4.27-.73Zm-4.24,37.62c3.71-.75,6.91-1.39,10.12-2.03,2.58-.52,4.22-4.35,2.33-6.14-1.7-1.62-2.58-3.51-3.55-5.49-.8-1.64-3.64-3.27-4.5-2.66-1.38,.97-3.11,1.77-3.31,3.72-.26,2.43-1.55,4.18-3.17,5.9-1.36,1.45-1.44,3.44-.4,5.09,.52,.83,1.79,1.19,2.48,1.6ZM11.53,13.41c.77,2.19,.36,5.23,3.59,6.16,.88,.25,2.09,.39,2.77-.03,.62-.38,.91-1.57,1.01-2.45,.12-.99-.03-2.04-.23-3.03-.51-2.55-.89-5.3-3.87-6.24-.63-.2-2.01,.25-2.2,.73-.57,1.46-.72,3.08-1.07,4.86Zm15.54-3.02c-.66-1.04-1.26-2.4-2.24-3.39-.67-.67-2.04-1.31-2.78-1.05-.91,.32-2.02,1.54-2.1,2.46-.2,2.27-.11,4.65,.37,6.87,.2,.94,1.56,1.97,2.6,2.27,.67,.2,2.15-.64,2.49-1.38,.78-1.68,1.07-3.59,1.67-5.79Zm7.64,5.5l-.36-.4c-.34-.95-.6-1.94-1.03-2.85-.69-1.49-2.88-1.79-4.05-.63-2.06,2.05-2.37,7.54-.36,9.54,.43,.43,2.02,.49,2.27,.15,1.32-1.84,2.37-3.86,3.52-5.82Zm-21.83,7.24c-.16-2.31-.54-4.62-2.97-6.04-1.64-.95-3.04-.68-3.98,.96-1.35,2.34,.8,7.1,3.55,7.86,2.29,.63,3.31-.15,3.4-2.78Z"/>
    <path class="cls-1" d="M16.55,37.62c-.68-.42-1.95-.77-2.48-1.6-1.04-1.65-.96-3.64,.4-5.09,1.62-1.72,2.91-3.47,3.17-5.9,.21-1.96,1.93-2.76,3.31-3.72,.86-.6,3.7,1.02,4.5,2.66,.96,1.99,1.85,3.88,3.55,5.49,1.88,1.79,.24,5.62-2.33,6.14-3.21,.64-6.41,1.29-10.12,2.03Z"/>
    <path class="cls-1" d="M11.53,13.41c.36-1.78,.51-3.4,1.07-4.86,.19-.48,1.57-.93,2.2-.73,2.98,.95,3.35,3.69,3.87,6.24,.2,.99,.35,2.04,.23,3.03-.11,.87-.39,2.06-1.01,2.45-.68,.42-1.89,.29-2.77,.03-3.23-.94-2.82-3.97-3.59-6.16Z"/>
    <path class="cls-1" d="M27.07,10.39c-.6,2.2-.9,4.1-1.67,5.79-.34,.73-1.82,1.58-2.49,1.38-1.03-.3-2.39-1.33-2.6-2.27-.48-2.23-.57-4.6-.37-6.87,.08-.92,1.19-2.14,2.1-2.46,.74-.26,2.12,.38,2.78,1.05,.98,.98,1.58,2.35,2.24,3.39Z"/>
    <path class="cls-1" d="M34.71,15.89c-1.15,1.96-2.21,3.98-3.52,5.82-.25,.35-1.84,.28-2.27-.15-2.01-2.01-1.71-7.5,.36-9.54,1.17-1.16,3.36-.85,4.05,.63,.42,.91,.69,1.9,1.03,2.85l.36,.4Z"/>
    <path class="cls-1" d="M12.88,23.13c-.08,2.63-1.1,3.42-3.4,2.78-2.75-.76-4.9-5.52-3.55-7.86,.95-1.64,2.35-1.91,3.98-.96,2.43,1.41,2.81,3.73,2.97,6.04Z"/>
  </g>
</svg>