<?xml version="1.0" encoding="UTF-8"?>
<svg id="_圖層_2" data-name="圖層 2" xmlns="http://www.w3.org/2000/svg" viewBox="0 0 643.6 375.64">
  <defs>
    <style>
      .cls-1 {
        fill: #231815;
        font-family: jf-openhuninn-2.0, jf-openhuninn-2.0;
        font-size: 16px;
      }

      .cls-2, .cls-3 {
        stroke-dasharray: 0 12;
        stroke-linecap: round;
        stroke-linejoin: round;
        stroke-width: 10px;
      }

      .cls-2, .cls-3, .cls-4 {
        stroke: #f3e465;
      }

      .cls-2, .cls-4 {
        fill: #fff;
      }

      .cls-3 {
        fill: none;
      }

      .cls-4 {
        stroke-miterlimit: 10;
        stroke-width: 2px;
      }
    </style>
  </defs>
  <g id="_新北線" data-name="新北線">
    <path class="cls-3" d="M394.18,329.69c16.59,1.03,33.59-1.97,50.59,1.03,2,1,5,2,7,4s5,3,7,5c10,10,21,19,33,26,28,3,55,0,83.16,1.35"/>
    <path class="cls-3" d="M201.95,234.17c4.81,1.55,5.81,6.55,9.81,9.55,33,24,57,50,88,75,5,4,10,7,15,11,14,0,29,0,42.8,.23"/>
    <path class="cls-3" d="M58.9,114.69c21.99,19.26,44.96,37.35,67.45,56.02,2.96,2.46,4.85,5.72,7.69,8.21,3.1,2.72,6.69,5.02,9.96,7.55l11.7,33.19,45.55,12.75"/>
    <path class="cls-3" d="M13.35,22.66c-.59,17.06,.41,35.06,.41,52.06,0,4,6,5,7.87,8.6"/>
    <line class="cls-2" x1="19.21" y1="83.32" x2="30.36" y2="91.96"/>
  </g>
  <g id="_新北點" data-name="新北點">
    <ellipse class="cls-4" cx="13.35" cy="26.77" rx="12.35" ry="8.65"/>
    <ellipse class="cls-4" cx="13.35" cy="70.93" rx="12.35" ry="8.65"/>
    <ellipse class="cls-4" cx="42.72" cy="101.68" rx="10.26" ry="7.18"/>
    <ellipse class="cls-4" cx="125.15" cy="170.99" rx="12.35" ry="8.65"/>
    <ellipse class="cls-4" cx="154.29" cy="213.86" rx="10.97" ry="7.68"/>
    <ellipse class="cls-4" cx="210.76" cy="243.67" rx="12.35" ry="8.65"/>
    <ellipse class="cls-4" cx="245" cy="270.27" rx="12.35" ry="8.65"/>
    <ellipse class="cls-4" cx="282.29" cy="304.8" rx="12.35" ry="8.65"/>
    <ellipse class="cls-4" cx="316.92" cy="330.32" rx="12.35" ry="8.65"/>
    <ellipse class="cls-4" cx="428.88" cy="329.19" rx="12.35" ry="8.65"/>
    <ellipse class="cls-4" cx="468.65" cy="348.23" rx="12.35" ry="8.65"/>
    <ellipse class="cls-4" cx="514.06" cy="366" rx="12.35" ry="8.65"/>
    <ellipse class="cls-4" cx="570.29" cy="366" rx="12.35" ry="8.65"/>
    <ellipse class="cls-4" cx="372.76" cy="324.87" rx="9.02" ry="6.31"/>
  </g>
  <g id="_新北名稱" data-name="新北名稱">
    <text class="cls-1" transform="translate(27.47 13.61)"><tspan x="0" y="0">新北</tspan><tspan x="0" y="20">產業園區</tspan></text>
    <text class="cls-1" transform="translate(28.66 68.58)"><tspan x="0" y="0">幸福</tspan></text>
    <text class="cls-1" transform="translate(47.24 179.64)"><tspan x="0" y="0">新埔民生</tspan></text>
    <text class="cls-1" transform="translate(103.48 219.67)"><tspan x="0" y="0">板橋</tspan></text>
    <text class="cls-1" transform="translate(228.05 236.55)"><tspan x="0" y="0">板新</tspan></text>
    <text class="cls-1" transform="translate(260.23 266.31)"><tspan x="0" y="0">中原</tspan></text>
    <text class="cls-1" transform="translate(298.71 296.15)"><tspan x="0" y="0">橋和</tspan></text>
    <text class="cls-1" transform="translate(266.29 344.63)"><tspan x="0" y="0">中和</tspan></text>
    <text class="cls-1" transform="translate(441.24 318.55)"><tspan x="0" y="0">景平</tspan></text>
    <text class="cls-1" transform="translate(402.22 357.4)"><tspan x="0" y="0">秀郎橋</tspan></text>
    <text class="cls-1" transform="translate(484.55 348.23)"><tspan x="0" y="0">十四張</tspan></text>
    <text class="cls-1" transform="translate(595.6 370)"><tspan x="0" y="0">大坪林</tspan></text>
    <text class="cls-1" transform="translate(74.14 114.96)"><tspan x="0" y="0">頭前庄</tspan></text>
    <text class="cls-1" transform="translate(389.7 317.22)"><tspan x="0" y="0">景安</tspan></text>
  </g>
</svg>