<?xml version="1.0" encoding="UTF-8"?>
<svg id="_圖層_2" data-name="圖層 2" xmlns="http://www.w3.org/2000/svg" viewBox="0 0 495.79 619.97">
  <defs>
    <style>
      .cls-1 {
        fill: #231815;
        font-family: jf-openhuninn-2.0, jf-openhuninn-2.0;
        font-size: 16px;
      }

      .cls-2 {
        fill: none;
        stroke-dasharray: 0 12;
        stroke-linecap: round;
        stroke-linejoin: round;
        stroke-width: 10px;
      }

      .cls-2, .cls-3 {
        stroke: #d0934c;
      }

      .cls-3 {
        fill: #fff;
        stroke-miterlimit: 10;
        stroke-width: 2px;
      }
    </style>
  </defs>
  <g id="_動物園線" data-name="動物園線">
    <path class="cls-2" d="M73.24,416.2c0,9.88,0,19.88,2.01,29.88,52,5,104-1,156,4,2,44-2,88,1,132,0,1,1,2,2,2,33,0,66,0,99.17-.48"/>
    <path class="cls-2" d="M73.02,332.24c-.65,13.18-.79,26.38-.66,39.58"/>
    <path class="cls-2" d="M73.24,265.7c.17,10.42,.2,20.85,.15,31.28"/>
    <path class="cls-2" d="M374.73,183.16c-.63-36.76,2.37-73.76-.63-110.76-101-2-198.85-2.32-299.85,1.68-3,52,0,103-1.01,154.65"/>
  </g>
  <g id="_動物園點" data-name="動物園點">
    <ellipse class="cls-3" cx="374.78" cy="201.5" rx="9.62" ry="6.74"/>
    <ellipse class="cls-3" cx="374.61" cy="158.89" rx="12.35" ry="8.65"/>
    <ellipse class="cls-3" cx="374.61" cy="119.13" rx="12.35" ry="8.65"/>
    <ellipse class="cls-3" cx="374.25" cy="73.19" rx="12.35" ry="8.65"/>
    <ellipse class="cls-3" cx="330.02" cy="73.19" rx="12.35" ry="8.65"/>
    <ellipse class="cls-3" cx="275.43" cy="73.19" rx="12.35" ry="8.65"/>
    <ellipse class="cls-3" cx="226.25" cy="73.19" rx="12.35" ry="8.65"/>
    <ellipse class="cls-3" cx="178.01" cy="73.19" rx="12.35" ry="8.65"/>
    <ellipse class="cls-3" cx="129.77" cy="73.19" rx="12.35" ry="8.65"/>
    <ellipse class="cls-3" cx="81.54" cy="73.19" rx="12.35" ry="8.65"/>
    <ellipse class="cls-3" cx="73.15" cy="118.66" rx="12.35" ry="8.65"/>
    <ellipse class="cls-3" cx="73.15" cy="156.66" rx="12.35" ry="8.65"/>
    <ellipse class="cls-3" cx="73.15" cy="194.66" rx="12.35" ry="8.65"/>
    <ellipse class="cls-3" cx="77.84" cy="432.81" rx="12.35" ry="8.65"/>
    <ellipse class="cls-3" cx="135.26" cy="448.4" rx="12.35" ry="8.65"/>
    <ellipse class="cls-3" cx="200.72" cy="448.4" rx="12.35" ry="8.65"/>
    <ellipse class="cls-3" cx="231.12" cy="477.8" rx="12.35" ry="8.65"/>
    <ellipse class="cls-3" cx="231.12" cy="516.72" rx="12.35" ry="8.65"/>
    <ellipse class="cls-3" cx="231.12" cy="551.22" rx="12.35" ry="8.65"/>
    <ellipse class="cls-3" cx="261.55" cy="582.89" rx="12.35" ry="8.65"/>
    <ellipse class="cls-3" cx="310.96" cy="582.89" rx="12.35" ry="8.65"/>
    <ellipse class="cls-3" cx="77.84" cy="394.49" rx="9.62" ry="6.74"/>
    <ellipse class="cls-3" cx="75.23" cy="314.88" rx="9.62" ry="6.74"/>
    <ellipse class="cls-3" cx="73.02" cy="245.89" rx="9.62" ry="6.74"/>
  </g>
  <g id="_動物園名稱" data-name="動物園名稱">
    <text class="cls-1" transform="translate(399.67 206.69)"><tspan x="0" y="0">南港展覽館</tspan></text>
    <text class="cls-1" transform="translate(399.79 164.47)"><tspan x="0" y="0">南港軟體園區</tspan></text>
    <text class="cls-1" transform="translate(400.74 125.37)"><tspan x="0" y="0">東湖</tspan></text>
    <text class="cls-1" transform="translate(400.68 77.26)"><tspan x="0" y="0">葫洲</tspan></text>
    <text class="cls-1" transform="translate(258 52.98)"><tspan x="0" y="0">內湖</tspan></text>
    <text class="cls-1" transform="translate(303.67 52.98)"><tspan x="0" y="0">大湖公園</tspan></text>
    <text class="cls-1" transform="translate(213.89 52.93)"><tspan x="0" y="0">文德</tspan></text>
    <text class="cls-1" transform="translate(166.64 52.96)"><tspan x="0" y="0">港墘</tspan></text>
    <text class="cls-1" transform="translate(121.54 52.98)"><tspan x="0" y="0">西湖</tspan></text>
    <text class="cls-1" transform="translate(54.34 52.96)"><tspan x="0" y="0">劍南路</tspan></text>
    <text class="cls-1" transform="translate(96.33 125.37)"><tspan x="0" y="0">大直</tspan></text>
    <text class="cls-1" transform="translate(96.41 164.25)"><tspan x="0" y="0">松山機場</tspan></text>
    <text class="cls-1" transform="translate(97.27 197.13)"><tspan x="0" y="0">中山國中</tspan></text>
    <text class="cls-1" transform="translate(85.64 229.92)"><tspan x="0" y="0">南京復興</tspan></text>
    <text class="cls-1" transform="translate(84.43 298.28)"><tspan x="0" y="0">忠孝復興</tspan></text>
    <text class="cls-1" transform="translate(82.64 376.17)"><tspan x="0" y="0">大安</tspan></text>
    <text class="cls-1" transform="translate(.47 434.34)"><tspan x="0" y="0">科技大樓</tspan></text>
    <text class="cls-1" transform="translate(112.61 477.78)"><tspan x="0" y="0">六張犁</tspan></text>
    <text class="cls-1" transform="translate(182.52 477.82)"><tspan x="0" y="0">麟光</tspan></text>
    <text class="cls-1" transform="translate(258.02 484.71)"><tspan x="0" y="0">辛亥</tspan></text>
    <text class="cls-1" transform="translate(257.92 520.37)"><tspan x="0" y="0">萬芳醫院</tspan></text>
    <text class="cls-1" transform="translate(257.92 555.54)"><tspan x="0" y="0">萬芳社區</tspan></text>
    <text class="cls-1" transform="translate(251.55 615.49)"><tspan x="0" y="0">木柵</tspan></text>
    <text class="cls-1" transform="translate(295.25 615.49)"><tspan x="0" y="0">動物園</tspan></text>
  </g>
</svg>