<?xml version="1.0" encoding="UTF-8"?>
<svg id="_圖層_2" data-name="圖層 2" xmlns="http://www.w3.org/2000/svg" viewBox="0 0 517.62 522.05">
  <defs>
    <style>
      .cls-1 {
        fill: #231815;
        font-family: jf-openhuninn-2.0, jf-openhuninn-2.0;
        font-size: 16px;
      }

      .cls-2 {
        stroke-dasharray: 0 0 13.66 13.66;
      }

      .cls-2, .cls-3, .cls-4, .cls-5, .cls-6, .cls-7, .cls-8, .cls-9, .cls-10 {
        fill: none;
        stroke-linecap: round;
        stroke-linejoin: round;
        stroke-width: 10px;
      }

      .cls-2, .cls-3, .cls-4, .cls-5, .cls-6, .cls-7, .cls-8, .cls-9, .cls-10, .cls-11 {
        stroke: #4bb784;
      }

      .cls-3 {
        stroke-dasharray: 0 0 12.36 12.36;
      }

      .cls-4 {
        stroke-dasharray: 0 0 11.38 11.38;
      }

      .cls-5 {
        stroke-dasharray: 0 0 12.27 12.27;
      }

      .cls-6 {
        stroke-dasharray: 0 0 9.56 9.56;
      }

      .cls-7 {
        stroke-dasharray: 0 0 10.18 10.18;
      }

      .cls-8 {
        stroke-dasharray: 0 0 12.54 12.54;
      }

      .cls-9 {
        stroke-dasharray: 0 0 11.3 11.3;
      }

      .cls-11 {
        fill: #fff;
        stroke-miterlimit: 10;
        stroke-width: 2px;
      }
    </style>
  </defs>
  <g id="_新店" data-name="新店">
    <g>
      <path class="cls-10" d="M361.65,394.66c.12,2,.23,4,.33,5.99"/>
      <path class="cls-5" d="M362.43,412.91c.8,30.75-.8,61.08-1.08,92.01"/>
      <path class="cls-10" d="M361.31,511.05c0,2,0,4,0,6"/>
    </g>
    <g>
      <path class="cls-10" d="M195.87,226.2c1.5,1.32,3.01,2.64,4.51,3.95"/>
      <path class="cls-9" d="M208.89,237.6c16.29,14.24,32.59,28.45,48.78,42.8,19.91,17.66,39.07,36.18,59.56,53.18,7.82,6.49,16.02,12.52,23.8,19.05"/>
      <path class="cls-10" d="M345.31,356.32c1.5,1.33,2.97,2.68,4.42,4.06"/>
    </g>
    <g>
      <path class="cls-10" d="M148.6,184.68c1.33,1.53,2.74,2.94,4.2,4.28"/>
      <path class="cls-10" d="M161.93,196.47c1.56,1.23,3.12,2.47,4.66,3.78"/>
    </g>
    <g>
      <path class="cls-10" d="M67.15,114.85c0,2,0,4,0,6"/>
      <path class="cls-7" d="M67.14,131.03c0,11.88-.01,23.76-.02,35.64"/>
      <path class="cls-10" d="M67.12,171.76c0,2,0,4,0,6,.99,0,1.99-.03,2.98-.12-.99-.12-2-.09-2.98,.12,2,.09,4,.14,6,.17"/>
      <path class="cls-2" d="M86.78,177.83c6.83-.17,13.66-.46,20.49-.64"/>
      <path class="cls-10" d="M114.1,177.07c2-.02,4-.02,6,0"/>
    </g>
    <g>
      <path class="cls-10" d="M113.26,32.76c-1.98,.13-3.98,.21-5.99,.26"/>
      <path class="cls-4" d="M95.88,32.99c-5.7-.1-11.42-.24-17.08-.09"/>
      <path class="cls-10" d="M73.12,33.16c-2,.14-4,.33-5.97,.6v6"/>
      <path class="cls-8" d="M67.15,52.3c0,6.3,0,12.54,0,18.82"/>
      <path class="cls-10" d="M67.15,77.39c0,1.99,0,3.99,0,6"/>
    </g>
    <g>
      <path class="cls-10" d="M213.87,32.7c-2,0-4,0-6,0"/>
      <path class="cls-6" d="M198.31,32.72c-11.15,.01-22.3,.02-33.46,.02"/>
      <path class="cls-10" d="M160.07,32.74c-2,0-4,0-6,0"/>
    </g>
    <g>
      <path class="cls-10" d="M503.12,32.7c-2,0-4,0-6,0"/>
      <path class="cls-3" d="M484.76,32.71c-71.92,.05-144.5,.05-216.27,0"/>
      <path class="cls-10" d="M262.32,32.71c-2,0-4,0-6,0"/>
    </g>
  </g>
  <g id="_新店點" data-name="新店點">
    <ellipse class="cls-11" cx="504.03" cy="29.57" rx="12.35" ry="8.65"/>
    <ellipse class="cls-11" cx="445.09" cy="29.57" rx="12.35" ry="8.65"/>
    <ellipse class="cls-11" cx="398.6" cy="29.57" rx="12.35" ry="8.65"/>
    <ellipse class="cls-11" cx="328.05" cy="29.57" rx="12.35" ry="8.65"/>
    <ellipse class="cls-11" cx="233.78" cy="29.57" rx="9.97" ry="6.98"/>
    <ellipse class="cls-11" cx="133.82" cy="29.57" rx="9.97" ry="6.98"/>
    <ellipse class="cls-11" cx="66.89" cy="98.57" rx="9.97" ry="6.98"/>
    <ellipse class="cls-11" cx="66.89" cy="165.52" rx="12.35" ry="8.65"/>
    <ellipse class="cls-11" cx="134.59" cy="174.17" rx="9.97" ry="6.98"/>
    <ellipse class="cls-11" cx="178.09" cy="213.66" rx="9.97" ry="6.98"/>
    <ellipse class="cls-11" cx="224.11" cy="249.38" rx="12.35" ry="8.65"/>
    <ellipse class="cls-11" cx="257.65" cy="280.31" rx="12.35" ry="8.65"/>
    <ellipse class="cls-11" cx="288.09" cy="307.34" rx="12.35" ry="8.65"/>
    <ellipse class="cls-11" cx="320.39" cy="334.9" rx="12.35" ry="8.65"/>
    <ellipse class="cls-11" cx="362.49" cy="423.92" rx="12.35" ry="8.65"/>
    <ellipse class="cls-11" cx="362.49" cy="463.02" rx="12.35" ry="8.65"/>
    <ellipse class="cls-11" cx="362.49" cy="503.76" rx="12.35" ry="8.65"/>
    <ellipse class="cls-11" cx="356.68" cy="376.03" rx="9.97" ry="6.98"/>
    <ellipse class="cls-11" cx="66.15" cy="48.36" rx="12.35" ry="8.65"/>
  </g>
  <g id="_新店名稱" data-name="新店名稱">
    <text class="cls-1" transform="translate(382.06 507.83)"><tspan x="0" y="0">新店</tspan></text>
    <text class="cls-1" transform="translate(382.06 468.05)"><tspan x="0" y="0">新店區公所</tspan></text>
    <text class="cls-1" transform="translate(381.92 428.59)"><tspan x="0" y="0">七張</tspan></text>
    <text class="cls-1" transform="translate(337.3 331.7)"><tspan x="0" y="0">景美</tspan></text>
    <text class="cls-1" transform="translate(303.65 302.4)"><tspan x="0" y="0">萬隆</tspan></text>
    <text class="cls-1" transform="translate(272.8 273.76)"><tspan x="0" y="0">公館</tspan></text>
    <text class="cls-1" transform="translate(239.21 242.93)"><tspan x="0" y="0">台電大樓</tspan></text>
    <text class="cls-1" transform="translate(0 173.59)"><tspan x="0" y="0">小南門</tspan></text>
    <text class="cls-1" transform="translate(17.62 45.67)"><tspan x="0" y="0">北門</tspan></text>
    <text class="cls-1" transform="translate(341.06 13.61)"><tspan x="0" y="0">南京復興</tspan></text>
    <text class="cls-1" transform="translate(366.65 58.94)"><tspan x="0" y="0">台北小巨蛋</tspan></text>
    <text class="cls-1" transform="translate(416.08 13.61)"><tspan x="0" y="0">南京三民</tspan></text>
    <text class="cls-1" transform="translate(485.62 57.25)"><tspan x="0" y="0">松山</tspan></text>
    <text class="cls-1" transform="translate(245.61 13.61)"><tspan x="0" y="0">松江南京</tspan></text>
    <text class="cls-1" transform="translate(154.07 19.76)"><tspan x="0" y="0">中山</tspan></text>
    <text class="cls-1" transform="translate(17.3 84.39)"><tspan x="0" y="0">西門</tspan></text>
    <text class="cls-1" transform="translate(77.68 205.17)"><tspan x="0" y="0">中山紀念堂</tspan></text>
    <text class="cls-1" transform="translate(210.42 225.14)"><tspan x="0" y="0">古亭</tspan></text>
    <text class="cls-1" transform="translate(381.99 380.15)"><tspan x="0" y="0">大坪林</tspan></text>
  </g>
</svg>