<?xml version="1.0" encoding="UTF-8"?>
<svg id="_圖層_2" data-name="圖層 2" xmlns="http://www.w3.org/2000/svg" viewBox="0 0 166.02 159.73">
  <g id="_圖層_1-2" data-name="圖層 1">
    <path d="M103.23,61.95c-2.35-.11-4.75,0-7.06-.39-6.02-1-12-1.19-18.01,.06-4.66,.97-9.33,1.85-14.03,2.57-4.89,.75-9.84,1.24-14.77,.81-3.46-.3-6.86-1.27-10.28-1.98-.78-.16-1.52-.55-2.3-.65-4.75-.65-8.01-3.66-10.37-7.4-1.63-2.58-2.4-5.73-3.36-8.69-1.88-5.78-2.69-11.82-4.04-17.73-1.06-4.65-1.74-9.48-3.88-13.8-2-4.05-3.54-8.46-7.23-11.44-.85-.69-1.82-1.29-2.82-1.72-1.32-.57-2.03-.28-2.82,.9-.89,1.32-1.24,2.77-.74,4.33,1.73,5.47,3.47,10.94,5.19,16.41,1.27,4.04,2.62,8.06,3.78,12.13,1.51,5.3,2.79,10.67,4.32,15.96,.88,3.07,2.02,6.06,3.1,9.07,1,2.78,3.29,4.67,4.93,7.01,.21,.3,.41,.62,.73,1.1-1.68,.51-2.93-.08-3.7-1.13-2.74-3.75-5.18-7.63-6.38-12.26-1.44-5.54-2.36-11.2-4.18-16.65-1.44-4.3-2.35-8.78-3.63-13.14-1.08-3.64-2.45-7.2-3.53-10.84C1.32,11.68,.69,8.79,.04,5.91-.29,4.46,1.49,.97,2.77,.36c1.76-.84,3.58-.07,4.7,.87,2.29,1.92,4.67,3.87,6.01,6.74,2.47,5.27,5.13,10.44,6.23,16.26,.91,4.85,1.92,9.69,3.19,14.46,1.31,4.93,2.94,9.79,4.56,14.63,.44,1.33,1.16,2.6,2.74,3.13,.62,.21,1.17,.87,1.57,1.45,1.07,1.54,2.57,2.34,4.33,2.76,4.34,1.02,8.64,2.28,13.04,2.93,2.79,.42,5.73,.06,8.58-.2,2.92-.27,5.81-.81,8.71-1.28,5.01-.81,9.98-1.96,15.02-2.38,4.74-.39,9.55-.09,14.32,.04,1.81,.05,3.62,.43,5.43,.72,.74,.12,1.45,.4,2.17,.61-.05,.28-.09,.57-.14,.85Z"/>
    <path d="M128.37,154.02c-1.1,.65-2.09,.15-2.78-.59-.9-.97-1.87-2.08-2.23-3.3-1.3-4.41-2.15-8.89-2.7-13.5-.71-5.97-1.63-12.01-4.31-17.55-.24-.49-.61-.95-1.01-1.32-3.25-3.03-6.93-5.19-11.28-6.38-3.45-.95-6.75-.29-10.11,.09-4.94,.56-9.83,1.36-14.64,2.7-3.99,1.11-8.04,1.99-12.07,2.92-.84,.19-1.74,.14-2.61,.21-1.48,.13-2.96,.27-4.39,.4,.22,2.61,.46,4.97,.62,7.33,.19,2.7,.02,5.47,.55,8.1,.39,1.98,1.59,3.81,2.51,5.66,.5,1,1.18,1.9,1.75,2.87,.86,1.46,1.7,2.62,3.78,2.63,2.13,0,4.22,3.17,3.92,5.25-.11,.77-.51,1.13-1.42,1.01-.4-1.03-.79-2.12-1.24-3.19-.42-1.01-1.09-1.64-2.29-1.83-2.14-.34-3.73-1.59-4.76-3.52-1.35-2.53-2.95-4.97-3.93-7.64-.62-1.69-.33-3.73-.39-5.62-.03-.96,.13-1.92,.08-2.87-.14-2.7-.34-5.39-.53-8.2-.73-.24-1.79-.39-2.62-.91-1.54-.95-2.85-.49-3.85,.62-1.71,1.89-3.43,3.82-4.75,5.98-1.54,2.51-2.84,5.05-5.12,7.11-2.15,1.94-2.9,4.73-2.2,7.73,.4,1.71,.83,3.42,1.08,5.16,.29,2.02,1.44,3.52,2.62,5.03,.64,.82,1.51,1.14,2.53,1.09,.72-.04,1.44-.09,2.16-.07,1.63,.03,3.45,1.46,3.79,3.06,.08,.39-.05,1.06-.32,1.23-.27,.18-1.12,.03-1.23-.2-1.2-2.46-3.36-2.74-5.74-2.91-.82-.06-1.81-.74-2.33-1.43-1.03-1.39-1.82-2.97-2.65-4.5-.53-.96-.99-1.96-1.43-2.97-.22-.5-.43-1.05-.45-1.58-.06-1.84-.12-3.69-.02-5.53,.1-1.73,.96-3.28,2.16-4.42,2.43-2.3,4.2-5.03,5.63-8,1.22-2.53,3.14-4.42,5.26-6.1,1.56-1.24,3.36-1.67,5.39-.83,1.07,.44,2.31,.58,3.49,.63,4.17,.19,8.16-.51,12.21-1.74,4.83-1.47,9.93-2.05,14.93-2.91,3.52-.61,7.08-.99,10.6-1.6,2.79-.49,5.44,.25,7.99,1.03,4.61,1.4,8.68,3.82,11.85,7.62,1.76,2.11,2.18,4.71,2.89,7.2,1.26,4.39,1.46,8.95,2.08,13.44,.47,3.46,1.29,6.92,2.36,10.24,.56,1.72,2.02,3.15,3.17,4.87Z"/>
    <path d="M134.7,137.2c1.34-.77,1.24-1.84,.94-2.96-.16-.61-.47-1.2-.51-1.81-.26-3.65-.45-7.3-.7-10.95-.34-4.91,.48-9.68,1.63-14.42,.19-.78,.7-1.49,1.06-2.23,.19,.02,.38,.05,.57,.07,.11,.46,.39,.96,.31,1.38-.49,2.49-1.17,4.94-1.58,7.43-.25,1.48-.22,3.03-.15,4.54,.14,2.95,.37,5.9,.6,8.84,.21,2.59,.47,5.17,.99,7.84,2.4-2.39,4.85-4.51,6.2-7.7,1.74-4.09,1.07-8.1,.25-12.17-.55-2.73-1.22-5.45-1.6-8.21-.38-2.79,.23-5.54,1.11-8.19,.1-.31,.66-.46,1.37-.93-.19,1.73-.3,3.03-.48,4.33-.53,3.94,.23,7.76,1.1,11.56,.69,3.04,1.26,6.06,1.02,9.22-.31,4.08-1.69,7.78-4.19,10.94-1.02,1.29-2.76,2.01-4.47,3.2,.34,2.19,.17,4.77,2.21,6.75,1.28,1.24,1.76,2.86,1.65,4.6-.08,1.2-.55,2.19-2.25,2.06,0-.56-.03-1.09,0-1.6,.11-1.5-.27-2.73-1.25-3.97-1.27-1.6-2.43-3.37-2.33-5.63,.04-.9-.22-1.76-1.51-1.98Z"/>
    <path d="M19.87,126.79c-1.42,.05-1.83-.68-1.87-1.66-.04-1.03-.03-2.08,.04-3.11,.38-5.61-.32-11.18-1.06-16.68-.53-3.87-1.25-7.73-1.31-11.61-.06-3.47,.24-7,1.56-10.3,.77-1.92,1.68-3.77,2.44-5.69,.71-1.8,1.3-3.66,1.99-5.64,.22,.25,.66,.54,.71,.88,.08,.61,.03,1.29-.16,1.88-.75,2.27-1.27,4.69-2.45,6.72-1.55,2.68-2.21,5.52-2.31,8.45-.11,3.34,.18,6.7,.49,10.04,.35,3.81,.99,7.59,1.37,11.39,.35,3.49,.6,7,.77,10.5,.08,1.56-.13,3.14-.21,4.84Z"/>
    <path d="M157.77,68.24c-.02,.24,.02,.47-.07,.54-2.96,2.27-3.94,5.57-4.82,8.99-.41,1.6-1.36,3.06-1.78,4.65-.81,3.08-2.46,5.66-4.29,8.17-.23,.32-.52,.64-.62,1.01-1.1,4.11-3.87,7.18-6.43,10.37-.15,.19-.5,.2-.97,.13,1.3-2,1.3-4.55,3.13-6.24,.17-.16,.37-.33,.46-.54,1.27-2.89,2.49-5.81,3.81-8.67,1.12-2.44,2.42-4.79,3.55-7.22,.67-1.44,1.4-2.91,1.72-4.44,.26-1.26,.8-2.21,1.59-3.13,.67-.79,1.26-1.65,1.94-2.43,.72-.84,1.47-1.7,2.79-1.18Z"/>
    <path d="M155.7,34.27c1.19-.64,1.8-.48,2.26,.25,1.94,3.11,4.08,6.12,5.76,9.36,3.48,6.72,2.86,13.43-.85,19.87-.65,1.13-1.86,1.97-2.9,2.84-.34,.29-.96,.25-1.45,.36-.1-.14-.2-.28-.31-.42,.41-.51,.75-1.11,1.24-1.52,2.31-1.92,3.11-4.66,3.73-7.36,.97-4.21,.71-8.51-1.1-12.45-1.32-2.88-3.27-5.46-4.91-8.18-.52-.86-.96-1.77-1.49-2.76Z"/>
    <path d="M21.36,130.91c0,.92-.1,1.86,.02,2.77,.17,1.25,.21,2.68,.85,3.68,2.22,3.45,3.65,7.26,5.29,10.97,.68,1.53,1.44,3.04,2.31,4.47,1.85,3.06,4.87,4.57,8.14,5.39,1.54,.38,3.29-.1,5.09-.19,.24-.39,.51-.98,.92-1.43,.21-.23,.77-.37,1.03-.24,.26,.13,.51,.64,.49,.96-.07,1.02-1.34,2.1-2.44,2.18-1.34,.1-2.69,.33-4.02,.25-4.7-.28-8.7-2.07-11.09-6.31-1.52-2.7-2.52-5.69-3.85-8.51-.99-2.09-2.02-4.18-3.21-6.16-1.41-2.33-1.54-5.66-.09-7.86,.19,.01,.38,.02,.56,.04Z"/>
    <path d="M127.65,33.52c-1.58,.72-2.2,.14-2.68-.66-.78-1.29-1.5-2.61-2.27-3.9-.77-1.3-1.58-2.58-2.49-4.06-2.1,4.1-3.94,8.1-5.37,12.29-.47,1.38-.43,1.4-2.08,1.23,.67-1.9,1.24-3.77,1.98-5.58,.88-2.12,2.03-4.14,2.86-6.28,.54-1.4,1.17-2.38,2.81-2.42,.36,0,.71-.28,1.38-.57,1.95,3.3,3.86,6.56,5.86,9.96Z"/>
    <path d="M149.72,22.17c-1.13,2.35-1.88,4.49-2.35,6.74-.19,.91-.41,1.83-1.81,1.02,.2-3.7,.52-7.36,3.91-9.92,1.8,.78,3.17,1.86,4.04,3.58,.79,1.57,1.64,3.1,2.45,4.65,.18,.34,.34,.74,.36,1.11,.05,.86-.7,1.41-1.41,.96-.57-.36-1.06-.94-1.4-1.53-.97-1.65-1.84-3.35-2.77-5.02-.25-.45-.56-.87-1.01-1.58Z"/>
    <path d="M52.75,148.48c-.46-.61-.92-1.22-1.39-1.82-1-1.32-2.04-2.61-3-3.96-.55-.77-1.14-1.57-1.43-2.45-.9-2.67-2.23-5.23-2.3-8.12-.01-.41,.21-.83,.44-1.7,.42,.91,.76,1.36,.83,1.85,.62,4.17,2.81,7.54,5.28,10.81,.9,1.19,1.54,2.58,2.21,3.92,.16,.33-.01,.82-.04,1.24l-.61,.25Z"/>
    <path d="M129.56,34.72c1.64-3.35,11.52-3.83,16.45-2.76-.44,.37-.73,.83-1.03,.83-2.21,.05-4.46-.22-6.63,.07-2.07,.27-4.14,.91-6.07,1.73-.94,.4-1.64,.82-2.72,.14Z"/>
    <path d="M54.56,148.42c1.2,.96,2.41,1.73,3.38,2.74,2.5,2.61,5,2.8,7.86,.45,.2-.16,.55-.13,1.31-.3-.45,.94-.58,1.75-1.04,2.07-.82,.57-1.82,.91-2.79,1.21-.5,.16-1.11-.03-1.64,.07-1.99,.37-3.32-.77-4.61-1.98-.79-.74-1.52-1.56-2.32-2.29-.52-.48-.89-.93-.15-1.98Z"/>
    <path d="M110.68,53.05c-.42-1.23-.97-1.99-.83-2.58,.74-3.14,1.65-6.23,2.61-9.72,1.19,1.41,1.27,2.92,.99,3.82-.8,2.62-.77,5.56-2.77,8.49Z"/>
    <path d="M120.38,30.82c2.15,1.48,2.16,3.66,3.45,5.56-1.04,.24-1.73,.4-2.59,.6-.31-2.05-2-3.63-.87-6.16Z"/>
    <path d="M137.67,50.91c-.02,1.15-.82,1.94-1.91,1.91-.96-.03-1.78-1.01-1.78-2.14,0-1.03,.96-1.94,2.01-1.9,1.04,.04,1.71,.88,1.68,2.13Z"/>
    <path d="M151.99,49.77c-.74-.03-1.25-.49-1.28-1.46-.03-1.15,.78-2.27,1.72-2.19,.88,.07,1.46,.58,1.49,1.54,.03,1.31-.64,2.13-1.92,2.12Z"/>
    <path d="M46.42,157.25c.86-.52,1.42-.85,2-1.19,.07-.72-.97-1.71,.49-2.11,1.5,1.31,1.74,2.23,.91,3.54-.6,.95-1.37,.94-3.4-.23Z"/>
    <path d="M68.65,148.03c1.94,1.19,2.37,2.88,1.5,4.6-.5,.99-.83,1.07-2.41,.41,1.53-1.31,.93-3.06,.91-5.01Z"/>
    <path d="M149.73,53.63c-1.83,2.33-1.9,2.34-4.26,.98,.94-1.91,2.46-2.3,4.26-.98Z"/>
    <path d="M136.13,147.53c1.68,.57,2.02,1.07,1.97,2.81-.03,1.03,.02,2.19-1.74,2.02-.07-1.54-.14-3.07-.23-4.83Z"/>
    <path d="M134.17,151.69c.4,3.09-.67,4.06-4.2,3.91,.31-.54,.62-1.36,.79-1.33,1.63,.3,2.03-.78,2.46-1.95,.08-.22,.47-.33,.96-.64Z"/>
  </g>
</svg>