<?xml version="1.0" encoding="UTF-8"?>
<svg id="_圖層_2" data-name="圖層 2" xmlns="http://www.w3.org/2000/svg" viewBox="0 0 117.58 143.03">
  <g id="_圖層_1-2" data-name="圖層 1">
    <path d="M31.77,140.98c.91-.1,1.81-.2,2.86-.32-.51-1.48-.48-2.82,1.29-3.31,.67,1.14,1.23,2.32,2.02,3.32,.28,.35,1.13,.24,1.59,.32,1.01-1.06-.19-3,1.98-3.27,.29,.53,.6,1.13,.93,1.73,.46,.11,.91,.27,1.37,.31,1.4,.14,1.96-.49,1.98-1.89,.05-3.26,.15-6.53,.3-9.79,.02-.48,.41-.95,.61-1.39,1.41,.26,1.66,1.12,1.65,2.17,0,1.36-.17,2.75,.05,4.08,.26,1.55,.28,3.06,.18,4.62-.05,.78,.5,1.61,.83,2.58-.36,.1-.75,.35-1.04,.26-1.2-.35-2.12-.24-3.27,.54-.87,.59-2.4,.38-3.6,.22-.75-.1-1.06,.14-1.61,.53-2.19,1.55-4.63,1.57-7.06,.66-.45-.17-.68-.93-1-1.42l-.05,.06Z"/>
    <path d="M109.26,86.92c-.6-.82-1.11-1.6-1.7-2.32-1.41-1.73-2.89-3.41-4.27-5.16-.24-.3-.15-.86-.22-1.31,.5-.07,1.22-.39,1.47-.17,2.83,2.43,5.9,4.73,6.38,8.85,.07,.6-.26,1.25-.45,2.04,.95,1.51,2.11,3.22,3.11,5.02,.78,1.41,.63,2.44-.19,2.73-1.37,.48-1.8-.62-2.35-1.49-1.2-1.89-2.41-3.77-3.55-5.7-.33-.56-.4-1.28-.6-1.93,.64-.15,1.27-.3,2.36-.56Z"/>
    <path d="M7,80.24c-.83-1.18-.46-2.44,.27-3.68,.64-1.1,1.36-2.16,1.95-3.29,.87-1.65,2.29-2.28,4.43-2.53-1.24,1.48-2.34,2.63-3.25,3.92-.95,1.35-1.7,2.83-2.85,4.77,.97-.39,1.42-.57,1.87-.74,.47-.18,.94-.34,1.95-.7-2.99,4.29-7.23,7.24-7.03,12.99-.56-.44-1.05-.64-1.25-1-.68-1.27-.21-2.61,.32-3.7,.96-1.99,2.25-3.83,3.59-6.04Z"/>
    <path d="M33.86,9.46c-1-.56-1.64-.77-2.06-1.19-.55-.56-1-1.25-1.36-1.96-.64-1.25-1.68-1.85-3.21-2.24-2.85,3.27-4.12,7.14-3.91,11.44-1.1,.47-1.76,.41-1.88-.74-.05-.55-.16-1.15-.01-1.67,.89-3.21,1.72-6.45,3.82-9.14,1.24-1.59,2.06-1.79,3.93-1.02,3.37,1.4,4.1,2.73,4.67,6.52Z"/>
    <path d="M47.73,37.47c0-1.68,.2-2.9-.06-4.02-.25-1.08-.96-2.05-1.48-3.07,1.78-1.29,3.71-1.31,5.26-.03-.11,1.25-2.03,1.3-1.84,2.83,.14,1.17,.03,2.37,.03,3.41,1.22,.95,2.47,1.93,3.77,2.94-1.62,1.44-2.16,1.37-4.64-.7-.23,.44-.38,1.08-.78,1.39-.33,.26-.96,.12-1.45,.16,0-.43-.04-.87,.02-1.29,.03-.22,.21-.43,.35-.62,.34-.44,.7-.85,.82-1Z"/>
    <path d="M80.77,13.82c-.35-.47-.73-.8-.87-1.22-1.16-3.42-2.93-6.51-5.08-9.4-.45-.6-.83-1.25-.07-1.88,.66-.54,1.21-.15,1.62,.38,1.21,1.54,2.5,3.05,3.55,4.7,.84,1.33,1.37,2.86,2.04,4.31,.59,1.28,.45,2.32-1.18,3.11Z"/>
    <path d="M111.35,99.35c.76-.42,1.35-.75,1.87-1.03,2.21,1.23,2.4,3.52,3.28,5.33,.61,1.26,.75,2.76,1.02,4.16,.23,1.2-.09,2.19-1.61,2.89-.81-4.1-2.05-7.89-4.56-11.35Z"/>
    <path d="M99.16,67.48c.94-.91,1.66-1.44,2.63-.53,1.57,1.46,3.2,2.86,4.71,4.37,1.27,1.26,2,2.77,1.37,5.09-1.14-1.3-2.02-2.37-2.98-3.36-.81-.83-1.76-1.53-2.59-2.34-1.05-1.03-2.06-2.11-3.14-3.22Z"/>
    <path d="M93.05,40.86c2.93,.68,4.21,2.74,4.87,5.35,.3,1.21-.49,1.71-1.92,2.21-.1-.2-.35-.54-.45-.92-.39-1.52-1.31-2.68-2.36-3.8-.69-.74-1.35-1.67-.14-2.83Z"/>
    <path d="M95.53,38.56c-3.16-.7-3.21-4.57-6.18-5.07,1.72-2.37,1.85-2.4,3.64-.83,.6,.52,1.14,1.11,1.71,1.66,1.15,1.1,1.5,2.39,.83,4.25Z"/>
    <path d="M113.51,120.73c.79-2.93,.45-5.57-.36-8.16-.22-.7-.71-1.35,.22-1.84,.71-.37,1.75,.09,2.07,1.06,.39,1.2,.84,2.48,.79,3.7-.09,1.97-.55,3.92-2.71,5.23Z"/>
    <path d="M9.84,126.28c.2,.67,.42,1,.35,1.23-.89,2.81,.27,5.13,1.68,7.41,.31,.5,.53,1.05,1.01,2-3.21-.59-3.74-2.96-4.63-4.95-.93-2.1-.28-3.85,1.59-5.68Z"/>
    <path d="M6.51,127.19c-1.66,.57-2.18,.28-2.96-1.44-1.52-3.31-.58-6.38,2.89-8.5-1.26,3.43-2.43,6.66,.07,9.94Z"/>
    <path d="M1.52,119.55c-.58-.6-1.34-1.02-1.39-1.52-.29-2.63-.2-5.26,1.5-7.49,.69-.91,1.58-1.66,2.38-2.48,.14,.09,.28,.18,.43,.28-.04,.34,0,.72-.12,1.02-.79,1.9-1.75,3.74-2.37,5.7-.39,1.22-.26,2.6-.42,4.51Z"/>
    <path d="M53.59,137.26c.46,1.72,.77,3.49,3.54,3.19-.71,.67-1.02,1.19-1.44,1.32-1.44,.45-2.9,.8-4.38,1.1-.84,.17-1.31-.22-2.18-1.63,.91-.12,1.74-.22,2.63-.34,.61-1.11-.46-3.01,1.83-3.64Z"/>
    <path d="M7.15,91.75c-1.74,3.62-3.34,7.15-3.44,11.23-1.03,0-1.68-.4-1.57-1.37,.4-3.54,1.32-6.89,3.78-9.62,.15-.17,.39-.26,.6-.37,.06-.03,.15,.03,.63,.13Z"/>
    <path d="M95.17,58.15c.68-.86,1.39-.79,2.02-.42,2.61,1.55,4.75,3.57,6.09,6.4-3.35-1.12-5.75-3.46-8.11-5.98Z"/>
    <path d="M14.27,61.05c-1.94,3.38-5.32,5.79-6.6,9.81-.93-1.02-.9-2.02-.36-2.79,1.71-2.46,3.12-5.18,5.61-7.02,.28-.21,.65-.3,.98-.45,.12,.15,.24,.3,.36,.44Z"/>
    <path d="M28.02,125.66c-.98,2.71-1.34,5.25-.25,7.82-1.92,.07-2.82-.48-2.84-2.01-.02-1.58,.13-3.19,.46-4.73,.25-1.2,1.21-1.56,2.63-1.08Z"/>
    <path d="M17.52,34.26c-1.78,2.68-5.09,3.76-6.46,6.94-1.05-.29-1.81-.76-1.11-1.97,1.68-2.9,4.36-4.35,7.56-4.97Z"/>
    <path d="M31.82,140.92c-2.45,.28-4.26-1.07-4.75-3.53-.35-1.8,.55-3.13,2.54-3.57-.07,.43-.12,.8-.18,1.17-.33,1.95-.04,3.65,1.76,4.85,.31,.21,.39,.76,.58,1.15,0,0,.05-.06,.05-.06Z"/>
    <path d="M87.35,138.57c1.03,.47,1.75,.81,2.48,1.11,1.79,.74,2.57,.51,3.56-1.16,.72-1.22,.71-1.23,2.33-1.72-.21,.72-.23,1.4-.56,1.83-.73,.93-1.53,1.85-2.45,2.58-2.23,1.74-4.46,.76-5.35-2.64Z"/>
    <path d="M73.82,0c-.31,.46-.47,.94-.81,1.15-1.85,1.18-3.18,2.82-4.34,4.66-.61,.96-1.32,2.05-2.82,1.46,.77-3.24,4.91-7.07,7.97-7.28Z"/>
    <path d="M14.49,24.23c.46-.68,.61-1.08,.9-1.28,1.51-1.04,3.02-2.07,4.59-3.01,1.06-.63,2.26-.75,3.43-.29,.3,.12,.5,.51,.91,.94-.46,.19-.73,.41-.98,.39-1.97-.13-3.51,.81-5.02,1.89-1,.72-1.95,1.6-3.83,1.35Z"/>
    <path d="M93.39,28.68c-.92-.27-1.77-.46-2.57-.78-1.38-.56-2.72-1.21-4.11-1.84,1.31-1.82,1.34-1.88,2.86-1.22,1.16,.51,2.25,1.18,3.33,1.85,.63,.39,1.13,.93,.49,1.99Z"/>
    <path d="M25.45,142.33c-3.01,1.44-5.9,.38-6.78-2.17-.32-.93-.58-1.93,.97-2.22,.62,2.93,3.44,3.1,5.81,4.39Z"/>
    <path d="M14.92,32.07c-.97-.36-1.8-.99-1.07-1.75,1.18-1.24,2.64-2.25,4.1-3.18,1.1-.7,2.36-.32,3.59,.02-2.29,1.66-5.36,2.03-6.62,4.91Z"/>
    <path d="M63.95,140.05c-.97,.75-1.85,1.68-2.92,2.2-1.34,.64-2.55,.05-3.19-1.19-.59-1.14-.41-1.51,1.31-2.73,.6,.67,1.1,1.7,1.83,1.9,.76,.21,1.75-.38,2.63-.62,.11,.15,.22,.3,.34,.45Z"/>
    <path d="M88.87,18.91c-2.27,.4-6.79-.69-8.34-1.78,.91-1.5,2.2-1.59,3.6-.88,1.46,.75,2.86,1.6,4.74,2.66Z"/>
    <path d="M64.61,141.35c1.34-.87,2.54-1.36,3.31-2.23,.75-.86,1.01-2.13,1.56-3.18,.16-.3,.6-.45,1.12-.82,.5,2.27-.24,3.85-1.63,5.25-1.14,1.15-2.41,1.64-4.35,.98Z"/>
    <path d="M95.19,51.31c2.18-1.03,4.55,1.08,5.37,4.57q-1.43,.31-5.37-4.57Z"/>
    <path d="M13.15,58.31c-2.41-.19-2.49-.37-2.05-2.28,.33-1.42,1.14-2.42,2.19-3.3,.64-.54,1.29-.58,1.84,.4-1.52,1.35-2.13,3.14-1.97,5.18Z"/>
    <path d="M13.48,44.31c-.07,.57,.03,1.15-.2,1.39-1.18,1.16-1.69,2.63-2.27,4.11-.16,.4-.71,.93-1.07,.91-.91-.03-.84-.85-.65-1.44,.68-2.14,1.14-4.51,4.2-4.98Z"/>
    <path d="M63.23,28.56c-1.33,.19-2.68,1.26-3.7-.41-.5-.82-.32-1.57,.37-2.14,.76-.63,1.64-1.04,2.61-.46,1.14,.68,1.44,1.64,.72,3.01Z"/>
    <path d="M39.08,28c.05,1.04-.79,1.83-2.03,1.88-1.19,.05-1.93-.65-1.98-1.87-.05-1.17,.84-2.03,2.12-2.06,1.03-.03,1.83,.84,1.89,2.05Z"/>
    <path d="M109.2,134.29c1.28-2.77,2.32-5.04,3.34-7.26,1.18,.11,1.16,.67,.92,1.37-.75,2.23-.95,4.84-4.26,5.89Z"/>
    <path d="M72,131.63c0-1.78-.02-3.58,0-5.38,.01-.72,.34-1.26,1.14-1.24,.8,.02,1.03,.58,1.12,1.29,.33,2.86-.25,4.22-2.27,5.33Z"/>
    <path d="M54.82,1.78c-.61,2.17-1.02,3.91-1.62,5.58-.14,.4-.95,.55-1.45,.82-.15-.46-.56-1.04-.42-1.38,.73-1.74,.88-3.9,3.49-5.03Z"/>
    <path d="M69.53,13.57c-1.03-1.68-.42-2.88,.36-3.93,.74-1.01,1.63-2.08,3.42-.91-1.22,1.57-2.43,3.11-3.78,4.84Z"/>
    <path d="M83.71,141.05c-2.95,2.98-5.2,2.65-6.47-1.29,1.24,.5,2.19,1.05,3.21,1.25,1.04,.2,2.14,.04,3.26,.04Z"/>
    <path d="M46.93,8.38c-1.93,.21-2.3-.09-2.02-1.65,.38-2.12,.66-2.5,2.79-3.59-.27,1.83-.52,3.54-.77,5.24Z"/>
    <path d="M106.54,135.49c-2.21,2.03-4.35,4.35-8.08,2.33,.78-.33,1.31-.77,1.8-.73,2.09,.17,3.87-.62,5.64-1.54,.18-.09,.42-.05,.63-.07Z"/>
    <path d="M37.89,10.05c-.33-.21-.98-.4-1.07-.73-.46-1.69,1.5-4.14,3.49-4.44-.74,1.59-1.48,3.16-2.42,5.18Z"/>
    <path d="M59.16,5.38c.42-1.12,.73-2.15,3.06-2.41-.43,.87-.74,1.56-1.13,2.23-.36,.63-1.02,.56-1.93,.18Z"/>
    <path d="M31.11,13.76c-2.26-1.45-2.34-1.56-2.62-3.18,1.92-.21,2.35,.28,2.62,3.18Z"/>
    <path d="M70.71,139.64h3.17c.06,.12,.12,.23,.18,.35-.86,.53-1.71,1.06-2.87,1.78-.19-.86-.31-1.39-.47-2.13Z"/>
  </g>
</svg>