<?xml version="1.0" encoding="UTF-8"?>
<svg id="_圖層_2" data-name="圖層 2" xmlns="http://www.w3.org/2000/svg" viewBox="0 0 133.84 94.94">
  <g id="_圖層_1-2" data-name="圖層 1">
    <path d="M91.04,23.38c2.76,4.64,2.93,9.06,.4,13.64-1.41-.49-1.77-1.31-1.65-2.49,.2-1.83,.32-3.66,.54-5.49,.23-1.89-.6-3.44-1.52-4.93-.28-.45-.98-.91-1.48-.9-2.15,.03-4.3,.16-6.43,.4-1.23,.13-1.58,1.03-1.09,2.36,.5,1.34,1.22,2.64,1.48,4.02,.68,3.5-.4,6.7-1.96,10.08-.82-.73-1.12-1.22-.98-2.05,.67-4,.33-7.94-.82-11.83-.18-.62-.03-1.33-.03-2.05-2.69-.78-5.02,1.14-7.62,1.25-.54-.85-.39-1.43,.49-1.74,1.94-.7,3.82-1.47,5.97-1.53,2.94-.08,5.9-.27,8.8-.75,3.06-.51,6.03-.16,9.03,.21,7.67,.96,14.23,4.36,20.29,8.99,3.57,2.73,6.69,5.92,9.47,9.39,2.41,3,3.91,6.55,4.69,10.38,.2,1,.07,1.7-1.1,2.4-3.23-11.28-10.78-18.87-20.92-24.91,.37,2.57,.76,4.6,.92,6.64,.1,1.25-.03,2.55-.29,3.78-.21,.96-1.06,1.39-2.06,1.18-.97-.21-1.2-1.04-1.19-1.84,.03-1.81-.08-3.68,.33-5.42,.45-1.91-.41-3.45-.84-5.11-.13-.52-.75-1.02-1.26-1.32-2.05-1.21-8.1-2.49-11.17-2.36Z"/>
    <path d="M94.3,81.28c-1.13,1.47-2.29,1.94-3.45,2.42-.66,.27-1.37,.48-1.96,.85-1.26,.79-1.62,2.03-1.1,3.46,.35,.96,.7,1.92,1.13,2.85,.71,1.53,1.69,1.78,4.33,1.05-.3-.8-.56-1.6-.9-2.36-.33-.75-.78-1.47,.16-2.1,.87-.58,1.82-.45,2.5,.52,.58,.84,1,1.81,1.44,2.74,.34,.72,.61,1.48,.95,2.31h5.99c-.51-1.87-.86-3.39-1.35-4.87-.49-1.45-.06-2.61,.9-3.92,1.61,2.44,2.58,4.87,2.27,7.87,1.39-.39,2.74-.77,4.09-1.15,.91-.26,1.32-.91,1.17-1.82-.22-1.41-.53-2.8-.79-4.21-.09-.46-.31-.96-.22-1.38,.11-.47,.43-.99,.82-1.24,.19-.12,.83,.24,1.12,.53,1.18,1.22,2.14,2.56,2.29,4.35,.04,.51,.37,1,.61,1.6,1.85-.64,3.55-1.23,4.55-2.45-.43-2.18-.82-4.09-1.18-6-.12-.62-.12-1.27-.29-1.87-.41-1.5-.44-1.49,1.52-2.41,1.36,2.55,1.95,5.3,2.33,8.48,.6-.35,1.17-.55,1.55-.94,2.11-2.17,4.29-4.29,6.19-6.64,.96-1.19,1.59-2.77,1.97-4.27,.52-2.07,.67-4.24,.97-6.37,.03-.22-.03-.48-.11-.7-.99-2.74-2-5.48-3-8.21,1.82-1.17,2.82-.94,3.31,1.01,.47,1.84,.62,3.76,.95,5.64,.09,.52,.32,1.01,.46,1.51,.13,.45,.37,.92,.32,1.36-.41,3.65-.87,7.37-2.98,10.46-1.37,2.01-3.26,3.7-5.09,5.34-2.31,2.06-4.69,4.07-7.24,5.81-1.82,1.24-3.92,2.11-5.99,2.91-2.42,.94-4.98,1.49-7.39,2.46-3.08,1.23-6.28,.85-9.43,1.01-1.95,.1-3.99-.22-5.88-.73-2.37-.65-3.03-2.91-3.49-4.98-.53-2.39,.29-4.4,2.45-5.75,1.54-.97,3.03-2.01,5.5-2.17Z"/>
    <path d="M39.66,2h-4.01c-.35,3.41,.18,6.96-2.27,10.26-.41-.81-.93-1.38-.95-1.96-.06-1.98,.05-3.96,.09-5.95,.01-.77,0-1.54,0-2.51-1.96,.33-3.73,.63-5.79,.97,.14,2.41,.17,4.63,.43,6.82,.17,1.46-.2,2.66-.95,3.81-2.08-.61-3.04-1.79-3.05-3.96,0-1.43,.2-2.85,.29-4.28,.03-.54,0-1.09,0-1.5-1.31-.98-2.78,.98-3.89-.57,.45-1.03,1.32-1.32,2.29-1.49C29.17,.35,36.5-.54,43.91,.38c1.66,.21,3.24,1.09,5.07,1.73-.8,1.41-1.65,1.32-2.61,1.03-1.18-.36-2.38-.67-3.88-1.09-.12,2.12-.14,3.85-.35,5.55-.19,1.59-.11,3.36-1.83,4.56-1.08-1.4-1.46-2.8-1.2-4.47,.27-1.79,.36-3.61,.56-5.68Z"/>
    <path d="M51.16,3.82c2.21-3.97,6.7-4.58,9.66-1.51,2.67,2.77,5,5.84,6.41,9.48,.43,1.1,.78,2.29,.88,3.46,.25,3.18-2.07,5.5-5.24,5.18-1.96-.2-3.88-.74-6.02-1.17,.41-1.08,.68-1.71,1.9-1.24,.77,.3,1.66,.26,2.89,.43-.48-1.46-.83-2.55-1.2-3.68,1.18-.34,2.27-.65,3.57-1.03-.35-.92-.68-1.72-.96-2.52-.27-.79-.9-1.51-.34-2.48,.17-.29,.02-.98-.23-1.26-1.41-1.61-2.83-3.23-4.37-4.71-1.08-1.04-2.42-1.11-3.78-.42-1.04,.53-2.1,.99-3.16,1.48Z"/>
    <path d="M17.1,4.78c-2.05-.83-4.02-2.1-6.34-1.72-.9,.14-1.92,.43-2.58,1-2.84,2.51-4.32,5.9-5.41,9.42-.24,.76,.39,1.8,.65,2.81,.51-.14,.92-.25,1.3-.36,.87,1.45,1.73,2.87,2.65,4.4,1.86-.68,3.23-2.01,4.74-3.12,.32-.24,.56-.64,.9-.76,.3-.1,.7,.08,1.06,.14-.07,.41,0,1.08-.22,1.2-2.59,1.36-4.34,3.9-7.22,4.91-1.54,.54-3.01,.53-4.43,.18-.68-.17-1.42-1.1-1.66-1.84-.69-2.15-.72-4.47-.04-6.56C1.83,10.3,3.32,6.13,6.68,3.04c.6-.55,1.43-1.04,2.22-1.19,2.59-.47,5.07,.19,7.42,1.25,.48,.22,.8,.82,1.19,1.24-.14,.14-.28,.29-.41,.43Z"/>
    <path d="M64.3,27.74c-2.29,.24-4.29,.44-6.34,.65q.36-1.75,6.36-2.65c-.35-1.27-.69-2.5-1.13-4.11,.72,.26,1.18,.38,1.59,.59,.18,.09,.27,.38,.36,.6,.67,1.69,1.47,3.28,3.41,3.96q-1.93,1.54-1.97,3.96c1.6,.5,3.26,1.02,5,1.57-.55,1.57-1.56,1.34-2.47,1.21-1.54-.23-3.04-.87-4.46,.52-.48,.48-.94,.02-1.55-1.55-1.74-.24-3.5-.48-5.36-.74,.89-1.73,1.43-1.82,6.32-1.29,.07-.8,.14-1.59,.25-2.74Z"/>
    <path d="M83.69,75.09c.9-.63,1.76-1.23,3.09-2.15-.46,1.56-.75,2.56-1.05,3.61,1.13,.55,2.05,.99,2.99,1.45-1.16,1.25-2.11,1.65-3.28,.79-2.14-1.58-4.53-2.87-5.92-5.39-1.09-1.99-.97-4.03-.81-6.07,.31-3.95,1.51-7.61,3.88-10.86,.58-.79,.82-1.83,1.28-2.92,.6-.17,1.24-.07,1.14,.97-.07,.67-.17,1.47-.56,1.97-2.59,3.34-3.63,7.25-3.96,11.32-.23,2.86,.74,5.47,3.19,7.29Z"/>
    <path d="M14.98,32.79c.58,1.14,.19,1.6-.47,1.88-.81,.34-1.66,.57-2.46,.92-.64,.28-1.24,.66-1.84,1.01-.51,.3-.99,.66-1.51,.94-1.09,.61-2.2,1.18-3.43,1.84-.5-1.78,1.53-2.06,1.84-3.46-.24-.5-.54-1.13-.86-1.83h-2.15c-.03-.26-.11-.49-.04-.55,1.45-1.4,1.58-3.08,1.31-4.98-.23-1.61,.03-3.23,1.44-4.34,.37-.29,.93-.33,2.01-.67-1.51,2.77-2.26,5.12-.79,7.76,1.36-.45,2.7-.91,4.06-1.32,1.19-.36,1.85,.03,1.79,1.36-1.89,.56-3.75,1.1-5.75,1.69,.32,.83,.51,1.31,.78,2.01,2.09-.78,4.06-1.51,6.08-2.26Z"/>
    <path d="M41.88,64.7c-2.37,1.32-3.79,3.09-4.81,5.21-1.1,2.28-.39,4.74,1.76,6.2,.18,.12,.32,.29,.49,.44-1.64,1.41-2.34,1.08-3.92-1.88-.57-.09-1.23-.19-1.79-.27-.17-.27-.34-.42-.32-.54,.57-3.76-1.64-7.19-5.39-8.37-.7-.22-1.62-.04-2.03-.95,1.32-.74,3.41-.37,5.09,1.02,1.38,1.14,2.64,2.42,4.06,3.73,1.2-1.39,2.41-2.85,3.69-4.25,1.06-1.15,1.38-1.17,3.18-.34Z"/>
    <path d="M112.06,65.25c1.56-.39,2.08-.15,2.33,1.38,.42,2.52-.13,4.88-2.05,6.57-2.21,1.93-4.58,3.72-7.05,5.3-2.13,1.36-4.48,2.38-6.77,3.48-.41,.2-.97,.1-1.45,.14-.07-.18-.15-.35-.22-.53,.54-.35,1.03-.83,1.63-1.03,4.66-1.54,8.44-4.41,11.71-7.97,1.04-1.14,1.96-2.55,2.42-4.01,.3-.95-.33-2.2-.54-3.33Z"/>
    <path d="M57.33,75.15c1.11-.5,1.75-.97,2.45-1.07,2.9-.41,5.81-.72,8.77-.54,2.83,.18,5.68,.03,8.52,.06,.49,0,.98,.23,1.67,.41-1.16,1.62-2.66,1.59-3.99,1.37-2.16-.35-4.26-.25-6.41-.05-3.23,.29-6.49,.34-9.74,.47-.2,0-.4-.2-1.26-.66Z"/>
    <path d="M18.54,75.65c-.78,1.26-1.64,1.05-2.42,.62-7.02-3.84-10.69-9.77-10.87-17.81,0-.38,.3-.77,.68-1.2,.79,8.53,4.42,15.04,12.61,18.38Z"/>
    <path d="M39.56,34.41c-1.47,1.5-2.21-.26-3.27-.76-.82,.86-1.26,2.52-3.12,1.41,.64-1.9,3.05-3.97-.08-5.79,.3-1.54,1.39-1.68,2.52-1.76,1.25-.09,1.95,.48,2.2,2.21-.35,.24-.93,.63-1.65,1.12,1.2,1.26,2.27,2.38,3.39,3.56Z"/>
    <path d="M90.94,75.65c.96,2.87,1.92,3.23,4.51,1.48,.86-.58,1.52-.22,2.23-.04,.32,.08,.55,.53,1.04,1.04-.74,.14-1.1,.28-1.46,.26-1.15-.06-2.15,.17-3.14,.85-.62,.42-1.48,.59-2.25,.66-1.26,.12-2.39-.61-2.6-1.62-.26-1.24,.11-2.21,1.67-2.63Z"/>
    <path d="M8.67,40.51c.14,3.8-2.01,7.09-2.14,11.07-1.4-2.45-.59-6.73,2.14-11.07Z"/>
    <path d="M25.18,23.8c-.03,1.33-.5,1.84-1.63,1.8-1.51-.06-2.1-.61-2.09-1.96,0-1.19,.9-2.05,2.12-2.05,.99,0,1.63,.88,1.6,2.21Z"/>
    <path d="M46.5,21.81c.98-.04,1.86,.77,1.89,1.74,.03,.87-1.12,1.89-2.13,1.89-.8,0-1.7-.86-1.75-1.67-.06-1,.87-1.91,1.99-1.96Z"/>
    <path d="M47.97,76.37c.76-.06,1.64-.14,2.72-.23-1.56,1.66-2.79,2.06-4.15,1.3-1.72-.95-.71-2.48-.84-3.89,2.08,.03,1.25,2.02,2.28,2.82Z"/>
    <path d="M43.75,77.01c-.59,.89-1.36,.99-2.2,.44-.93-.62-1.38-1.59-1.08-2.63,.21-.75,.01-2.11,1.72-1.8,0,.82-.2,1.72,.06,2.46,.21,.61,.97,1.02,1.51,1.54Z"/>
    <path d="M26.01,77.37c.18-.71,.16-1.44,.43-1.58,.72-.36,1.17,.19,1.35,.87,.08,.29,.14,.77-.01,.91-.63,.56-1.3,1.09-2.03,1.49-.79,.43-1.64,.54-2.46-.66,1.04-.39,1.95-.74,2.72-1.03Z"/>
    <path d="M29.6,73.18c1.26-.87,1.84-.36,2.34,.48,.9,1.52,.86,1.79-.76,3.85-.31-.31-.91-.78-.86-.87,.82-1.35,.57-2.53-.72-3.47Z"/>
    <path d="M52.61,74.93c.26-1.45,1.39-2.21,2.38-3.04,.13-.11,.63,.22,.99,.36q-1.73,2.81-3.37,2.68Z"/>
  </g>
</svg>