<?xml version="1.0" encoding="UTF-8"?>
<svg id="_圖層_2" data-name="圖層 2" xmlns="http://www.w3.org/2000/svg" viewBox="0 0 149.88 235.58">
  <defs>
    <style>
      .cls-1 {
        fill: #fff;
      }
    </style>
  </defs>
  <g id="_圖層_1-2" data-name="圖層 1">
    <path d="M61.8,9.75c2.53,.36,4.33,2.17,6.37,3.45,2.62,1.64,5.15,3.42,7.72,5.15,.99,.67,2.03,1.29,2.94,2.05,.39,.32,.51,.96,.53,1.65-5.73-2.88-11.09-6.2-16.48-10.2-.56,6.04,.01,11.64,1.67,17.31-.49,.05-1.01,.26-1.16,.1-.59-.61-1.52-1.34-1.5-2.02,.06-3.38-1.46-6.5-1.3-9.92,.12-2.58-.09-5.12,1.2-7.59Z"/>
    <path d="M100.67,.23c1.19-.48,2.12-.21,2.75,.8,1.31,2.09,2.73,4.13,3.81,6.34,.98,2,1.56,4.19,2.31,6.3,.08,.23,.15,.46,.21,.69,.25,.94,.65,2.08-.61,2.44-1.23,.35-1.26-.94-1.55-1.69-1.22-3.21-2.26-6.5-3.63-9.64-.78-1.79-2.09-3.35-3.3-5.24Z"/>
    <path d="M96.3,46.47q-1.8,.35-3.72-.58c-1.2,.42-1.18,2.35-2.78,2.33-.92-.92-.3-1.74,.27-2.31,1.23-1.23,.82-2.68,.69-4.05-.13-1.34-1.36-1.57-2.78-1.62,1.76-2.42,3.95-2.35,6.55-2.7-.68,1.46-1.16,2.45-1.61,3.45-.74,1.65-.55,2.16,1.09,3.05q1.57,.85,2.29,2.41Z"/>
    <path d="M57.94,144.12q1.24-1.56,1.68-6.08c.28-.14,.6-.38,.97-.48,1.68-.45,2.35,.04,2.08,1.72-.3,1.83-.88,3.6-2.54,4.7-1.3,.86-2.63,1.67-3.98,2.46-.22,.13-.59,.02-.89,.02,.13-2.58,.08-2.77-1.33-4.86,2.12-.89,2.4-.73,4.02,2.52Z"/>
    <path d="M123.81,70.2c2.32,3.32,3.58,6.9,4.32,10.68,.07,.38,.07,.83-.06,1.18-.12,.33-.47,.8-.71,.8-.39,0-.97-.25-1.14-.56-.33-.62-.38-1.38-.63-2.05-.99-2.6-2.02-5.19-3.04-7.78-.55-1.4-.53-1.42,1.25-2.27Z"/>
    <path d="M38.73,198.87c-.59,.2-1.05,.54-1.39,.45-1.54-.4-3.02-.84-4.12-2.22-1.98-2.5-3.95-4.94-4.73-8.17-.32-1.34,.05-1.91,1.21-2.38,1.49,5.21,3.76,9.72,9.03,12.33Z"/>
    <path d="M121.22,60.94c.2-.08,.49-.2,.79-.29,.22-.07,.44-.1,.63-.14,4.69,5.24,6.47,9.12,5.29,11.53-.83-.02-1.12-.56-1.47-1.26-1.66-3.24-3.41-6.44-5.23-9.84Z"/>
    <path d="M26.64,82.69c-4.04,2.96-7.11,6.7-9.6,11.06-1.21-.83-1.18-1.7-.73-2.62,1.8-3.66,4.45-6.53,8.03-8.5,.63-.35,1.34-.96,2.3,.06Z"/>
    <path d="M9.51,164.05c-.15,1.57-.3,3.14-.45,4.7-.08,.87-.21,1.74-.23,2.62-.04,2.1-.49,4.28,1.5,6.14-2.45-.49-3.4-1.6-3.67-3.97-.36-3.1,.47-6.03,1.29-8.95,.09-.33,.64-.54,.97-.81,.2,.09,.4,.18,.59,.27Z"/>
    <path d="M100.6,2.29c-.94,2.68-1.87,5.37-2.83,8.04-.57,1.58-1.21,3.13-1.78,4.71-.27,.77-.63,1.34-1.54,1-.85-.33-.6-1.04-.38-1.63,1.27-3.35,2.5-6.72,3.89-10.01,.4-.95,1.32-1.68,1.99-2.51,.21,.13,.43,.27,.64,.4Z"/>
    <path d="M51.49,180.88c.78,.22,1.49,.34,2.13,.61,2.56,1.08,5.16,2.08,7.62,3.36,1.13,.59,2.76,1.18,2.35,3.38-.98-.51-1.83-1.01-2.72-1.4-2.9-1.3-5.8-2.59-8.73-3.82-.91-.38-1.27-.86-.65-2.13Z"/>
    <path d="M51.92,200.91c-.27,.31-.5,.83-.82,.89-1.99,.42-3.73-.43-5.49-1.19-2.51-1.08-4.42-2.79-5.64-5.26-.68-1.38-.67-2.29,.09-3.94,.14,.05,.38,.07,.4,.16,1.48,5.23,5.58,8.68,11.09,9.3,.16,.02,.31,.08,.46,.12,0,0-.09-.07-.09-.07Z"/>
    <path d="M17.19,183.61c-2.11,.08-3.19-.96-3.73-2.41-.69-1.85-1.1-3.8-1.56-5.73-.2-.84-.22-1.72-.35-2.58-.22-1.58,.25-2.05,2.13-2.13,0,5.81,.66,9.61,3.5,12.85Z"/>
    <path d="M33.15,72.88c-2.32,1.39-4.51,2.47-6.43,3.91-1.94,1.46-3.61,3.29-5.4,4.96-.3-1.47,.98-3.74,3.25-5.78,2.63-2.37,6.34-3.85,8.58-3.1Z"/>
    <path d="M70.7,145.6c.74-.85,1.39-1.59,2.09-2.38,.9,1.91,.42,3.31-1.22,3.91-1.45,.54-3.06-.32-3.71-2.17-2.22,.44-4.53,1.11-7.17,.04,.76-.37,1.24-.71,1.78-.86,.99-.28,2.01-.43,3.01-.69,2.21-.58,2.82-.36,4.37,1.61,.14,.17,.39,.25,.85,.53Z"/>
    <path d="M53.77,180.36c-3.03-3.62-6.56-6.56-11.09-8.14,.92-1.36,1.44-1.66,2.75-.91,2.97,1.69,6.01,3.36,7.98,6.31,.48,.73,.59,1.71,.87,2.57-.17,.06-.34,.11-.51,.17Z"/>
    <path d="M114.36,31.5c1.78-1.02,3.05-.51,4.19,.42,2.09,1.71,3.27,4.02,4.07,6.55,.08,.26-.07,.6-.11,.94-1.07,.42-1.39-.23-1.85-.94-1.07-1.66-2.19-3.3-3.45-4.8-.67-.8-1.69-1.31-2.84-2.17Z"/>
    <path d="M61.91,201.15c0-2.2,.39-4.37-.13-6.3-.39-1.45-1.88-2.66-3.04-3.82-.75-.75-1.29-1.37-.68-2.42,5.89,2,7.18,8.5,3.85,12.54Z"/>
    <path d="M37.86,64.93c-2.08,1-4.12,1.82-6.01,2.93-1.81,1.05-3.45,2.39-5.21,3.64-.65-1.21-.25-2.11,.38-2.63,3.04-2.49,6.21-4.78,10.49-4.23,.12,.02,.22,.18,.36,.29Z"/>
    <path d="M83.77,142.22c.85,.33,1.47,.57,2.09,.82l.35,.6c-.36,.15-.7,.35-1.07,.44-1.63,.43-3.27,.83-5.21,1.32,2.21-4.03,2.21-5.25,.22-7.63,1.11-1.13,1.75-1.21,2.54-.12,.95,1.31,1.55,2.78,1.09,4.57Z"/>
    <path d="M5.57,127.69c-1.64,3.55-3.19,6.91-4.83,10.46-.13-.16-.54-.46-.64-.84-.13-.51-.12-1.11,0-1.64,.15-.69,.48-1.33,.69-2.01,.32-1.09,.93-2.02,.74-3.35-.2-1.45,2.29-2.94,4.05-2.61Z"/>
    <path d="M117.99,42.78c2.2-.57,2.82,.83,3.63,1.65,2.56,2.58,4.83,7.05,4.68,9.37-2.8-3.71-5.43-7.2-8.31-11.02Z"/>
    <path d="M122.59,93.28c-.23-1.6-.3-3.26-.75-4.81-.45-1.55-1.29-3-2-4.56,.87-.54,1.61-.62,2.19,.13,1.68,2.14,2.3,4.68,2.32,7.33,0,.81-.22,1.99-1.77,1.91Z"/>
    <path d="M4.2,139.21c1.1,.75,.74,1.39,.44,2.07-.73,1.67-1.5,3.33-2.09,5.05-.45,1.3-.64,2.69-.97,4.14-.98-.71-1.56-1.81-1.19-2.98,.79-2.48,1.8-4.9,2.78-7.31,.16-.38,.65-.63,1.03-.97Z"/>
    <path d="M25.04,189.7c-.84,.76-1.55,.55-2.21,.01-2.39-1.95-4.1-4.4-5.15-7.29-.37-1.02-.26-2.01,1.06-2.71,1.17,3.98,3.3,7.22,6.3,9.99Z"/>
    <path d="M110.99,76.79c1.43-2.79,2.91-5.5,2.33-8.75,1.58-.56,2.02-.42,2.19,.8,.27,2.05-.32,3.92-1.17,5.78-.66,1.45-2.02,1.66-3.34,2.17Z"/>
    <path d="M91.28,124.62c.26-.48,.36-.85,.6-1.06,2.5-2.25,4.89-4.55,5.65-8.05,.08-.38,.66-.66,1.09-1.05,1.68,3.89-3.05,8.72-7.33,10.16Z"/>
    <path d="M4.45,163.99c-1.74-.76-2.25-1.93-2.17-3.09,.15-2.3,.5-4.6,.95-6.86,.18-.93,.8-1.83,2.17-.93-.61,3.47-2.19,6.87-.95,10.88Z"/>
    <path d="M7.2,113.54c-.84-.19-.98-.88-.5-1.56,1.76-2.48,3.69-4.81,6.36-6.39,.65-.38,1.46-.87,1.99,.3-2.6,2.53-5.18,5.04-7.86,7.64Z"/>
    <path d="M116.6,90.91c1.07-.51,1.76-.03,2.11,.72,.95,2.07,1.37,4.26,.8,6.51-.12,.45-.85,.75-1.3,1.12-.24-.46-.62-.9-.69-1.38-.35-2.27-.61-4.55-.92-6.96Z"/>
    <path d="M51.92,200.91s.09,.07,.09,.07c-.62-.73-1.28-1.42-1.84-2.19-.47-.64-.55-1.32,.15-1.9,1.37,1.14,2.58,2.61,4.14,3.31,1.52,.68,3.38,.58,5.27,.85-1.09,1.52-2.61,1.9-4.15,1.54-1.28-.3-2.44-1.11-3.65-1.69Z"/>
    <path d="M96.97,136.12c1.53-1.56,3.04-1.21,4.27-.27,1.18,.89,1.64,2.31,1.2,3.83-.39,1.36-1.42,2.06-3.45,2.2,.87-1.21,1.84-2.27,1.28-3.8-.57-1.55-2.31-1.12-3.31-1.96Z"/>
    <path d="M7.46,116.65c-2.06,3.45-3.87,6.47-5.87,9.82-.53-1.42-.43-2.63,.07-3.46,1.27-2.08,1.81-4.71,4.19-5.99,.41-.22,.95-.23,1.6-.37Z"/>
    <path d="M20.45,96.42c-3.55,.92-5.53,4-8.68,5.98,.04-.66,0-.97,.08-1.24,.59-1.8,4.32-5.27,6.11-5.58,.78-.14,1.72-.44,2.49,.83Z"/>
    <path d="M65.07,36.23c-1.72,2.82-3.45,5.65-5.29,8.67-.3-.47-.75-.84-.72-1.17,.08-.86,.18-1.82,.62-2.52,1.02-1.61,2.19-3.14,3.41-4.61,.38-.46,1.1-.63,1.66-.93,.11,.19,.21,.38,.32,.57Z"/>
    <path d="M39.73,162.68c-2.3,.49-2.64-1.72-3.96-2.46-1.3-.72-2.55-1.55-3.86-2.35,3-1.65,6.83,.7,7.82,4.8Z"/>
    <path d="M67.82,125.16c1.9,.2,2.18,.46,2.33,1.89,.33,3.07-1.05,5.45-3.94,6.38,.64-2.85,2.65-5.27,1.61-8.27Z"/>
    <path d="M28.29,137.92c-2.54-1.6-2.94-3.63-2.52-5.86,.29-1.55,.76-3.07,1.33-4.54,.16-.41,.99-.89,1.41-.81,.81,.17,.77,.95,.36,1.53-2.05,2.94-2,6.05-.58,9.68Z"/>
    <path d="M45.39,170.26c-.89,.08-1.21,.2-1.31,.1-2.31-2.33-5.12-3.98-8.03-5.5l.13-.52c.47-.15,1-.54,1.39-.43,3.34,.95,5.6,3.23,7.83,6.35Z"/>
    <path d="M73.68,122.93v-7.83c.87-.39,1.59-.37,2.06,1.05,.9,2.72-.1,4.86-1.49,6.95-.19-.05-.38-.11-.57-.16Z"/>
    <path d="M59.31,37.91c-.3-2.11,1.24-3.59,2.17-5.21,.79-1.37,2.14-2.25,3.74-2.46,.13,.14,.26,.28,.39,.42-1,1.22-2.03,2.42-2.98,3.68-.94,1.25-1.79,2.56-2.67,3.84-.22-.09-.44-.18-.66-.27Z"/>
    <path d="M78.06,65.1c-2.12,1.8-1.51,3.96-1.43,6.02-1.94-.63-2.81-2.43-2.23-4.49,.38-1.37,1.74-2.05,3.66-1.52Z"/>
    <path d="M101.37,126.87c-.22-.71-.67-1.38-.49-1.74,.87-1.83,1.37-3.73,1.54-5.73,.03-.3,.27-.57,.33-.7,1.49,.38,1.38,1.34,1.19,2.01-.57,2.03,.15,4.59-2.57,6.16Z"/>
    <path d="M33.24,153.59c-2.28-2.16-4.56-4.33-6.95-6.58,1.39-1.04,2.18-.11,2.89,.47,1.99,1.61,3.99,3.26,4.06,6.12Z"/>
    <path d="M106.75,112.14c1.17-.37,1.5,.36,1.55,1.06,.19,2.39-.14,4.68-1.79,6.9-1.37-2.96,.5-5.43,.24-7.96Z"/>
    <path d="M114.12,104.87c-.48-2.6-.72-5.19-.49-7.88,.84-.35,1.66-.25,1.72,.59,.19,2.47,.85,5.05-1.23,7.29Z"/>
    <path d="M33.64,61.68c.64-1.89,2.48-1.94,3.99-2.39,1.74-.51,3.54-.8,5.19,.42-3.19,.07-6,1.55-9.18,1.97Z"/>
    <path d="M82.4,35.68c.08,2.01-1.97,3.37-3.36,2.69-.21-.1-.39-.28-.55-.45-.63-.71-.23-1.37,.19-1.95,.67-.93,1.53-1.82,2.75-1.52,.49,.12,.8,1.01,.97,1.23Z"/>
    <path d="M103.37,8.24c-.36,2.21-.67,4.11-1.01,6.24-.86-.25-1.42-.41-1.94-.56,.17-4.3,.51-5.07,2.95-5.68Z"/>
    <path d="M74.51,145.47c1.84-.47,2.3-1.64,2.12-3.25-.04-.4,.47-.86,.72-1.29,.43,.37,1.06,.65,1.25,1.11,.92,2.29-.11,4.21-2.34,4.38-.51,.04-1.05-.32-1.58-.5-.06-.15-.12-.3-.17-.46Z"/>
    <path d="M70.92,66.97c-.96-.79-1.2-1.87-.97-2.93,.28-1.3,.72-2.59,1.32-3.77,.23-.46,1.09-.59,1.67-.87,.12,.12,.23,.23,.35,.35-.76,2.31-1.51,4.62-2.36,7.22Z"/>
    <path d="M104.39,81.78c.63-1.63,2.08-2.76,1.49-4.58-.06-.19,.68-.82,1.13-.93,.27-.07,.88,.39,1.02,.74,.85,2.14-.91,4.61-3.64,4.77Z"/>
    <path d="M100.62,33.44c-.04,1.26-1.27,2.29-2.62,2.21-1.07-.06-1.31-.73-1.25-1.65,.1-1.37,1.05-2.3,2.32-2.26,1.04,.03,1.58,.63,1.55,1.7Z"/>
    <path d="M80.62,74.54c-2.01-.86-2.56-1.95-2.27-4.49,.13-1.07,.76-1.62,2.27-1.96v6.45Z"/>
    <path d="M93.82,144.08q2.7-1.95,1.61-4.06c.81-.66,1.53-.55,2.22,.19,.63,.68,.75,2.55,.25,3.41-.58,1-1.86,1.18-4.07,.45Z"/>
    <path d="M87.67,123.95c-.36,3.93-2.61,5.82-6.09,5.56,.49-.38,.78-.66,1.13-.86,1.47-.86,2.73-1.89,3.52-3.48,.26-.52,.95-.82,1.45-1.22Z"/>
    <path d="M82.18,13.67c.4,2.45,.7,4.16,.92,5.88,.04,.3-.23,.84-.46,.92-.26,.08-.89-.18-.95-.4-.45-1.69-.85-3.39-1.11-5.11-.04-.26,.78-.65,1.6-1.29Z"/>
    <path d="M30.37,145.65c-1.68-1.53-3.39-3.02-5.02-4.6-.58-.56-.84-1.33-.08-2.36,2.43,1.79,4.19,3.99,5.57,6.51-.16,.15-.32,.3-.48,.45Z"/>
    <path d="M48.82,53.78c-2.96,.15-5.93,.3-9.35,.47,2.08-1.46,4.48-1.95,7.52-1.62,.69,.07,1.34,.48,2.01,.74-.06,.14-.13,.27-.19,.41Z"/>
    <path d="M115.71,22.02c-2.16-.81-4.33-1.61-7-2.6,.91-.43,1.33-.73,1.79-.83,1.66-.37,2.85,.71,4.1,1.49,.59,.37,1.03,.98,1.54,1.48-.14,.15-.29,.31-.43,.46Z"/>
    <path d="M86.78,144.3c2.75,.76,3.05-2.18,4.71-3.04,.68,1.58,.47,2.67-.6,3.53-1.1,.87-2.71,.8-4.11-.49Z"/>
    <path d="M99.02,126.94c-.24,2.22-1.26,4.14,.05,5.94-.65,.89-1.26,.37-1.65-.02-1.18-1.17-.63-2.7-.63-4.08,0-1.12,.91-1.54,2.23-1.84Z"/>
    <path d="M112.28,25.79c2.99-1.53,5.27-.56,6.45,2.45-1.41,.59-2.1-.73-3.1-1.15-.99-.42-2.01-.79-3.34-1.31Z"/>
    <path d="M33.89,146.02c2.09,.58,4.19,1.16,6.34,1.76-1.4,1.69-4.66,1.01-6.34-1.76Z"/>
    <path d="M71.32,21.34c-1.23,.72-2.03,.47-2.69-.37-.53-.68-1.05-1.37-1.49-2.11-.16-.28-.08-.71-.11-1.07,.42-.02,1.04-.23,1.23-.03,1.06,1.11,2.01,2.33,3.06,3.57Z"/>
    <path d="M61.22,49.14c-1.42-1.91-.09-4.96,2.67-5.82-.82,2.14-1.33,4.09-2.67,5.82Z"/>
    <path d="M52.7,143.69c1.04,1,1.38,2.09,.7,3.15-.64,1-1.72,1.35-3.31,.83,1.89-.83,.29-3.39,2.61-3.98Z"/>
    <path d="M42.64,148.26c2.36,0,3.11-1.91,3.98-3.99,.99,2.44,.92,3.1-.07,3.99-1.08,.97-2.09,1.03-3.91,0Z"/>
    <path d="M102.33,79.62c.01,2.6-1.46,3.84-4.01,3.57,1.73-2.76,2.19-3.19,4.01-3.57Z"/>
    <path d="M110.99,110.42c-.82-1.69-.61-3.73-1.67-5.33,1.59-.62,2.23-.41,2.4,.96,.17,1.38,.04,2.8,.04,4.21-.26,.05-.51,.11-.77,.16Z"/>
    <path d="M57.02,50.89c-2.11,.29-3.91-.12-5.62-1.3,2.25-.63,4.22-.18,5.62,1.3Z"/>
    <path d="M86.12,18.82c-1.43-1.01-1.39-2.3-1.32-3.55,.01-.25,.47-.58,.78-.69,.21-.07,.75,.17,.77,.32,.17,1.25,.95,2.55-.23,3.91Z"/>
    <path d="M90.84,17.55c-1.5-.99-2.2-2.32-1.8-3.21,.16-.35,.65-.66,1.05-.75,.22-.05,.77,.39,.78,.63,.07,1.03,0,2.07-.03,3.33Z"/>
    <path d="M76.23,131.16c1.38-.56,2.75-1.12,4.13-1.68,.06,.15,.12,.31,.18,.46-1.18,1.08-2.56,1.7-4.16,1.8-.05-.19-.1-.39-.15-.58Z"/>
    <path class="cls-1" d="M61.84,233.94c1.15-.9,1.87-1.46,2.7-2.11,.82,1.23,1.21,2.25,.51,3.75-1-.51-1.92-.98-3.2-1.64Z"/>
    <path class="cls-1" d="M149.88,178.36c-.12,.65-.24,1.3-.36,1.95-.14-.02-.29-.04-.43-.06,.08-.65,.15-1.29,.23-1.94,.19,.02,.38,.03,.56,.05Z"/>
  </g>
</svg>