<?xml version="1.0" encoding="UTF-8"?>
<svg id="_圖層_2" data-name="圖層 2" xmlns="http://www.w3.org/2000/svg" viewBox="0 0 30.05 22.42">
  <g id="_圖層_1-2" data-name="圖層 1">
    <path d="M15.52,22.42c-.08,0-.16,0-.24,0-1.8-.06-3.63-.31-4.48-2.1-.97-2.04-.92-4.21,.54-6.08,1.16-1.49,2.27-3.09,4.19-3.73,.44-.15,.97-.47,1.33-.34,1.86,.67,3.89,.81,5.62,1.87,2.68,1.65,2.89,5.21,.42,7.52-1.93,1.8-4.67,2.86-7.38,2.86Z"/>
    <path d="M5.96,5c.02-1.79,1.31-3.27,2.83-3.28,1.94,0,3.5,1.62,3.42,3.55-.08,1.82-1.63,3.19-3.54,3.14-1.32-.03-2.72-1.8-2.7-3.41Z"/>
    <path d="M0,14.19c.02-2.28,.84-3.52,2.34-3.52,1.62,0,3.43,2.1,3.42,3.98,0,1.4-1.45,2.57-3.13,2.55C.53,17.17-.02,16.54,0,14.19Z"/>
    <path d="M21.62,3.13c-.04,1.47-.42,2.42-1.58,2.98-1.07,.51-1.94,.32-2.83-.39-.95-.75-1.11-1.67-.82-2.76,.08-.31,.18-.61,.26-.92,.25-.97,.66-1.83,1.77-2.01,1.06-.17,2.27,.61,2.79,1.79,.22,.5,.33,1.04,.41,1.32Z"/>
    <path d="M25.04,6.64c.11-1.45,1.28-3.09,2.21-3.08,1.32,.02,2.92,2.15,2.8,3.72-.12,1.52-1.1,2.44-2.48,2.34-1.37-.1-2.63-1.59-2.53-2.98Z"/>
  </g>
</svg>