<?xml version="1.0" encoding="UTF-8"?>
<svg id="_圖層_2" data-name="圖層 2" xmlns="http://www.w3.org/2000/svg" viewBox="0 0 34.68 17.88">
  <defs>
    <style>
      .cls-1 {
        fill: #fff;
      }
    </style>
  </defs>
  <g id="_圖層_1-2" data-name="圖層 1">
    <path d="M26.04,3.97c2.16-1.64,3.91-3.41,6.34-3.97,1.95,3.34,2.59,6.45,2.17,10.13-2.52,1.95-5.31,.88-8.1,.5-1.01,1.76-1.65,3.78-3.69,4.57-1.47,.57-2.94,1.18-4.45,1.62-4.37,1.26-8.84,1.3-13.28,.63C.54,16.78-1.42,12.45,1.13,8.63c1.54-2.3,3.31-4.51,5.83-5.55,2.31-.95,4.92-1.18,7.41-1.65,.77-.15,1.6,.01,2.39-.03,3.35-.19,6.52,.29,9.28,2.57Zm6.97,5.19c-.02-2.49-.14-4.9-1.74-7.2-1.97,1.37-3.84,2.67-5.62,3.92-1.4-.65-2.63-1.46-3.99-1.83-4.92-1.34-9.83-.89-14.51,.96-1.95,.77-3.63,2.28-4.65,4.3-2.02,4-.92,6.11,3.54,6.4,2.61,.17,5.26,.21,7.86-.05,2.36-.23,4.72-.8,6.99-1.5,2.02-.62,3.75-1.75,4.01-4.24,.06-.56,.55-1.07,.8-1.53,2.54,.34,4.77,1.52,7.31,.76Z"/>
    <path class="cls-1" d="M33.01,9.16c-2.54,.76-4.77-.42-7.31-.76-.25,.46-.74,.97-.8,1.53-.26,2.48-1.99,3.61-4.01,4.24-2.27,.7-4.63,1.26-6.99,1.5-2.6,.26-5.25,.22-7.86,.05-4.46-.29-5.56-2.39-3.54-6.4,1.02-2.02,2.69-3.53,4.65-4.3,4.68-1.85,9.59-2.3,14.51-.96,1.35,.37,2.59,1.17,3.99,1.83,1.78-1.24,3.65-2.55,5.62-3.92,1.61,2.3,1.72,4.72,1.74,7.2Zm-21.48,2.3c1.72,.66,3.21,.02,4.65-.46,.33-.11,.64-1.08,.53-1.56-.28-1.21-.79-2.37-1.22-3.56-3.34,1.4-3.99,1.89-4.78,3.9,1.43-.79,2.52-1.4,3.73-2.07,.28,.66,.49,1.14,.66,1.52-.9,1.32-3.04,.28-3.56,2.24Zm-4.17,.65c-.82-.64-1.29-1.29-1.69-1.26-.42,.04-.91,.69-1.11,1.18-.07,.18,.59,.94,.93,.95,.47,.02,.96-.42,1.87-.87Z"/>
    <path d="M11.53,11.46c.52-1.95,2.66-.91,3.56-2.24-.17-.39-.37-.86-.66-1.52-1.21,.67-2.3,1.28-3.73,2.07,.79-2.01,1.44-2.5,4.78-3.9,.42,1.19,.94,2.35,1.22,3.56,.11,.48-.2,1.45-.53,1.56-1.44,.48-2.93,1.12-4.65,.46Z"/>
    <path d="M7.36,12.11c-.91,.46-1.4,.89-1.87,.87-.34-.01-1-.77-.93-.95,.2-.49,.69-1.14,1.11-1.18,.4-.04,.87,.61,1.69,1.26Z"/>
  </g>
</svg>